<?xml version="1.0" encoding="utf-8"?>
<!-- Generator: Adobe Illustrator 18.1.1, SVG Export Plug-In . SVG Version: 6.00 Build 0)  -->
<svg version="1.1" id="Layer_1" xmlns="http://www.w3.org/2000/svg" xmlns:xlink="http://www.w3.org/1999/xlink" x="0px" y="0px" width="48px" height="48px"
	 viewBox="0 0 48 48" enable-background="new 0 0 48 48" xml:space="preserve">
<g>
	<g>
		<ellipse opacity="0.19" enable-background="new    " cx="17" cy="44.7" rx="10.4" ry="3.3"/>
		<path fill="#0E0E0E" d="M17,0C7.6,0,0,7.5,0,16.8s17,28,17,28s17-18.7,17-28S26.4,0,17,0z"/>
	</g>
	<g>
		<path fill-rule="evenodd" clip-rule="evenodd" fill="#DCCC96" d="M9,15.5c0.8,0,1.7,0,2.5,0c0.1,0,0.1,0,0.2,0
			c0.1,0,0.2-0.1,0.2-0.2c0,0,0-0.1,0-0.1c0-0.8,0-1.6,0-2.4c0-1.3,0-2.5,0-3.8c0-0.6,0-1.2,0-1.8c0-0.2,0.1-0.3,0.3-0.3
			c1.5,0,2.9,0,4.4,0c0.2,0,0.3,0.1,0.3,0.3c0,0.1,0,0.2,0,0.3c0,0.9,0,1.8,0,2.8c0,0.2,0,0.3,0.2,0.5c0.1,0.1,0.2,0.1,0.2,0.1
			c0.7,0.2,1.3,0.4,2,0.6c0.1,0,0.2,0,0.4,0c0.1,0,0.2,0,0.3,0c0.5,0.1,0.9,0.2,1.4,0.3c0.3,0.1,0.5,0.1,0.8,0.2
			c0.1,0.1,0.2,0.1,0.4,0c0.4-0.1,0.9-0.1,1.3-0.1c0.9,0,1.9,0.1,2.7,0.5c0.2,0.1,0.3,0.3,0.3,0.5c0,0.1,0,0.3,0,0.4
			c0,0.7,0,1.3,0,2c0,0.1,0,0.3,0.1,0.4c0.2,0.4,0.3,0.7,0.5,1.1c0.1,0.2,0.2,0.4,0.2,0.7c-0.1,0.7-0.1,1.3-0.3,2
			c-0.1,0.3-0.3,0.6-0.6,0.7c-0.2,0.1-0.5,0.2-0.7,0.3c-0.2,0.1-0.2,0-0.3-0.1C26,20.2,26,20.1,25.9,20c0-0.1-0.1-0.1-0.2-0.1
			c-0.1,0-0.1,0.1-0.1,0.2c0,0.1,0,0.1,0,0.2c0.1,0.3,0,0.4-0.2,0.5c-0.1,0.1-0.1,0.1-0.2,0.2c-0.2,0.3-0.4,0.6-0.8,0.7
			c-0.3,0.1-0.5,0.3-0.8,0.4c-0.2,0.1-0.2,0.1-0.3-0.1C23.4,22,23.1,21.9,23,22c0,0,0,0.1,0,0.1c0.1,0.2,0.1,0.3-0.1,0.3
			c-0.2,0-0.4,0.2-0.4,0.4c-0.1,0.3-0.3,0.5-0.4,0.7c-0.2,0.2-0.3,0.4-0.4,0.7c0,0.1-0.1,0.2-0.2,0.3c-0.1,0.1-0.1,0.1,0,0.2
			c0.1,0.1,0.1,0.2,0,0.3c-0.1,0.2-0.1,0.3,0,0.5c0.1,0.2,0.1,0.4,0.1,0.5c0.1,0.3,0.1,0.5,0.3,0.8c0.1,0.1,0.1,0.1,0.1,0.2
			c0,0.1-0.1,0.1-0.2,0.1c-0.2,0-0.5,0-0.7-0.1c-0.4-0.2-0.9-0.3-1.3-0.3c-0.2,0-0.5-0.1-0.7-0.2c-0.2-0.1-0.4-0.3-0.5-0.6
			c-0.2-0.5-0.5-1-0.8-1.5c-0.4-0.7-0.8-1.3-1.1-2.1c-0.2-0.5-0.5-1-0.8-1.4c-0.3-0.3-0.6-0.6-0.9-1c-0.1-0.1-0.2-0.1-0.3-0.2
			c-0.3,0-0.5-0.1-0.8-0.1c-0.4-0.1-0.7,0-1,0.3c-0.2,0.1-0.2,0.3-0.3,0.5c0,0.2-0.1,0.4-0.1,0.5c-0.1,0.3-0.4,0.4-0.7,0.3
			c-0.1,0-0.1,0-0.2-0.1c-0.4-0.2-0.9-0.4-1.3-0.7c-0.3-0.2-0.4-0.4-0.6-0.7c-0.2-0.4-0.3-0.8-0.4-1.2C9,18.4,8.8,18.2,8.6,18
			c-0.2-0.1-0.3-0.2-0.5-0.3c-0.3-0.2-0.5-0.4-0.7-0.7c-0.1-0.1-0.2-0.2-0.4-0.3c-0.4-0.2-0.7-0.5-0.9-0.8c-0.1-0.1-0.1-0.2,0-0.3
			c0.1-0.1,0.2-0.1,0.3-0.1C7.2,15.5,8.1,15.5,9,15.5C9,15.5,9,15.5,9,15.5z M18.1,19.9C18.1,19.9,18.1,19.9,18.1,19.9
			c0.4,0,0.7,0,1.1,0c0.3,0,0.6-0.2,0.7-0.5c0.1-0.3,0-0.6-0.4-0.6c-0.2,0-0.4,0-0.6,0c-0.2,0-0.3-0.1-0.3-0.3
			c0-0.2-0.1-0.4-0.1-0.6c0-0.3,0-0.4,0.3-0.4c0.6-0.1,1.1-0.2,1.6-0.3c0.5-0.1,0.9-0.4,1.2-0.9c0.2-0.4,0.3-0.8,0.3-1.2
			c0-0.9-0.6-1.5-1.2-1.8c-0.4-0.2-0.8-0.2-1.1-0.2c-0.9,0-1.9,0-2.8,0c-0.2,0-0.4,0-0.6,0c-0.3,0-0.6,0.3-0.5,0.6
			c0,0.2,0.1,0.3,0.3,0.3c0.3,0,0.7,0.1,1,0.1c0.3,0,0.3,0.1,0.4,0.3c0.1,0.5,0.1,1,0.1,1.5c0,0.2-0.1,0.3-0.3,0.3
			c-0.2,0-0.5,0-0.7,0c-0.2,0-0.2,0.1-0.2,0.2c0.1,0.3,0.2,0.6,0.5,0.7c0.2,0.1,0.3,0.1,0.5,0.2c0.2,0,0.2,0.1,0.2,0.3
			c0,0.3,0,0.6,0,0.9c0,0.1-0.1,0.2-0.2,0.2c-0.1,0-0.3,0-0.4,0c-0.3,0-0.5,0.2-0.5,0.5c0,0.1,0,0.2,0.1,0.3
			c0.1,0.1,0.3,0.2,0.5,0.2C17.3,19.9,17.7,19.9,18.1,19.9z"/>
		<path fill-rule="evenodd" clip-rule="evenodd" fill="#DCCC96" d="M18.6,14.9c0-0.2,0-0.4,0-0.6c0-0.2,0-0.3,0.3-0.3
			c0.5,0.1,1.1,0.1,1.6,0.3c0.3,0.1,0.4,0.3,0.4,0.6c0,0.4-0.1,0.7-0.5,0.9c-0.5,0.3-0.9,0.4-1.5,0.4c-0.2,0-0.3-0.1-0.3-0.3
			C18.6,15.7,18.6,15.3,18.6,14.9z"/>
	</g>
</g>
</svg>
