<?xml version="1.0" encoding="utf-8"?>
<!-- Generator: Adobe Illustrator 18.1.1, SVG Export Plug-In . SVG Version: 6.00 Build 0)  -->
<svg version="1.1" id="Layer_1" xmlns="http://www.w3.org/2000/svg" xmlns:xlink="http://www.w3.org/1999/xlink" x="0px" y="0px"
	 viewBox="0 0 512 512" enable-background="new 0 0 512 512" xml:space="preserve">
<path fill="#6E6E6E" d="M510.1,260.8c1.6,1.3,1.3,15.9-1.1,18.6c0.6,0.1,1.1,0.2,1.7,0.3c-0.3,1.8-0.1,3.9-1,5.5
	c-2.1,4.1-1.4,8.3-1.8,12.6c-0.2,2.2-1.5,4.3-2.1,6.5c-0.3,1.4-0.1,2.9-0.1,4.3c0,1.5,0.6,3.3-1.6,3.3c0.3,0.8,1,1.9,0.7,2.2
	c-2.3,2.3-1.1,5.3-1.6,7.9c-0.2,1.2-1.1,2.2-1.7,3.3c-0.2,0.3-0.5,0.6-0.6,0.9c-0.7,3-1.4,6-2.2,9c-0.4,1.7-0.1,3.9-3,4.1
	c2.1,3.9-0.7,6.6-2,9.7c-1.6,3.7-3.1,7.5-4.8,11.2c-2.5,5.5-5.1,11-7.8,16.4c-0.9,1.7-3.4,3.1-3.5,4.7c-0.3,5-5.4,7.3-6,12
	c-0.1,0.5-0.7,0.9-1,1.4c-1.3,2.1-2.5,4.2-3.9,6.2c-1.7,2.4-3.4,4.7-5.2,7c-1.9,2.4-3.9,4.8-5.9,7.1c-1.2,1.3-2.5,2.6-3.9,4.1
	c-0.1-0.1,0.4,0.4,1.1,1c-0.5,0.5-1,1.1-1.6,1.7c-6.6,6.6-13.2,13.3-19.9,19.8c-3.7,3.6-7.5,7-10.6,11.1c-1,1.4-2.8,2.2-4.3,3.2
	c-2.1,1.3-4.9,2.1-6.3,3.9c-2.7,3.5-7.2,4.5-10,8c-1.4,1.8-4.5,2.3-6.7,3.6c-1.5,0.9-2.8,2.2-4.3,3c-2.9,1.7-5.9,3.2-8.9,4.8
	c-0.2-0.3-0.5-1-0.9-1.7c0,0.4-0.1,0.9-0.1,1.3c-1,0.9-1.8,2.1-3,2.8c-2.4,1.5-4.7,3.5-7.9,3.2c-0.5,0-0.9,1.3-1.6,1.7
	c-1.9,1-3.9,1.9-5.9,2.8c-0.2-0.4-0.4-0.8-0.8-1.9c-0.1,1.2-0.2,1.9-0.2,1.8c-2.5,1.2-4.7,2.3-7,3.3c-1.5,0.7-2.9,1.4-4.4,1.9
	c-3.3,1.2-6.6,2.3-10,3.3c-1.7,0.5-3.5,0.4-5.2,0.5c0.6,0.3,1.3,0.7,2,1.1c-4.5-0.6-8,4.2-12.2,2.3c-1.6,1-2.9,2.3-4.6,2.8
	c-2.3,0.7-4.8,0.7-7.3,0.9c-0.2,0-0.6-0.1-0.7,0c-2.2,2.9-5.6,1.2-8.3,1.9c-1.9,0.5-3.9,0.7-5.4-1.3c0.3,0.6,0.6,1.2,1.3,2.6
	c-2.6,0-4.8-0.1-7.1,0.1c-0.6,0-1.1,1-1.6,1c-3.6,0.1-7.1,0-10.7,0c-1.5,0-3,0-4.1,1.5c-0.4,0.6-1.7,0.7-2.6,0.7
	c-3.4,0.1-6.8,0-10.2,0c-4.3,0-8.6,0.1-12.9-0.1c-1.3,0-2.5-0.7-4.2-1.2c-1.6,1.8-4.8,1.5-7.4-0.2c-1.6-1.1-4.2-0.8-6.4-1
	c-3.2-0.2-6.4,0-9.6-0.2c-1.5-0.1-3-0.4-4.4-0.8c-1-0.3-1.8-1.2-2.3-1.5c-2.7,0.1-5.2,0.2-7.6,0.4c0.1-1,0.2-1.8,0.2-2.7
	c-0.3,0-0.5-0.1-0.8-0.1c-0.2,0.8-0.3,1.7-0.4,2.2c-3-0.6-6-0.9-8.9-1.8c-1.9-0.6-3.6-1.9-5.5-2.6c-0.9-0.4-2.1,0.1-3.1-0.2
	c-2.5-0.7-5-1.6-7.5-2.4c-0.3-0.1-0.7-0.1-1,0c-2.1,0.6-3.6-0.5-3.7-1.9c-1.9-0.2-3.9-0.1-5.6-0.8c-4.3-1.6-8.4-3.3-12.5-5.2
	c-7.2-3.4-14.4-7-21.6-10.5c-3.6-1.7-7.2-3.3-10.7-5.1c-1-0.5-1.7-1.8-2.6-2.9c-2-1-5-1.6-6.8-3.4c-2.1-2-4.8-2.9-7-4.6
	c-2.4-1.9-5.1-3.4-7.4-5.3c-3.1-2.6-5.9-5.5-9-8.1c-1.8-1.6-4-2.7-5.8-4.3c-3.8-3.5-7.8-6.9-11.2-10.7c-1.2-1.4-2.4-2.6-3.8-3.9
	c-2.8-2.5-5.3-5.3-7.8-8.1c-1.3-1.5-2.1-3.4-3.4-4.9c-3.6-4.5-7.4-8.7-10.8-13.3c-3.4-4.5-6.4-9.3-9.5-14c-2-3-4.3-5.8-5.8-9
	c-1.6-3.5-3.6-6.7-5.4-10.1c-0.7-1.3-0.9-2.8-1.6-4.1c-1.2-2.6-2.7-5.2-3.8-7.8c-0.4-1-0.1-2.4-0.6-3.3c-0.6-1.1-1.8-1.9-2.7-2.9
	c-0.3-0.4-0.6-1-0.6-1.5c0.4-2.9-1.7-4.9-2.5-7.3c-1-2.9-1.8-6-2.9-8.9c-1.1-3.2-2.5-6.4-3.7-9.5c-0.3-0.8-0.5-1.6-0.7-2.5
	c-0.4-1.7-0.3-3.7-1.1-5.1c-2.3-4.1-2.4-4.1,0.8-7.3c0.2-0.2,0.4-0.3,0.2-1c-0.6,0.5-1.1,1-1.6,1.4c-2.3-3.6-3.2-7.6-3-11.9
	c0.1-1.4-0.3-2.8-0.5-4.2c0.6-0.1,1.1-0.1,2.4-0.2c-1-0.6-1.5-1.2-1.9-1.1c-1.6,0.2-1.9,0.2-1.8-1.9c0-4.6-1.3-9.2-1.3-13.8
	c0-2-0.7-3.8-0.5-5.7c0.2-1.6,2.2-3.3-0.8-4.3c-0.2-0.1-0.2-1,0-1.4c1-2.4-0.9-4.5-0.6-6.8c0.3-2.6,0.6-5.2,0.5-7.9
	c-0.1-2.6-1.2-5.2,0.7-7.6c-1.5-0.8-0.7-2.1-0.6-3.2c0.6-4.8,1.5-9.5,2-14.2c0.3-3.3,0.1-6.7,0.3-10c0.1-1.2,0.2-2.5,0.8-3.5
	c1.6-2.5,1.4-5.2,1.6-7.9c0.1-1.7-1.3-4.1,1.4-5.5c0.6-0.3,0.5-2.1,0.7-3.2c1-4.8,2-9.6,3.1-14.4c0.2-0.8,0.7-1.5,0.9-2.3
	c1.2-4.2,2.3-8.5,3.7-12.7c0.7-2.2,1.7-4.2,2.8-6.2c0.5-0.8,1.7-1.1,2.6-1.7c-1.6-3.4,1-10.3,4.5-10.9c-2.8-1.7-0.3-3.8,0.3-4.2
	c1.8-1.2,1-3.1,1.8-4.4c1.4-2.2,2.7-4.5,3.9-6.8c1.1-2,2.2-4,3.1-6.1c0.7-1.6,1.2-3.4,1.9-5.1c0.7-1.5,1.2-1.4,2.2,0.3
	c1.7-5.4,3.2-10.8,8.6-14c-1.5-2.4,1.4-3.4,2.3-5.2c1.2-2.3,2.9-4.4,4.3-6.6c0.2-0.3,0.3-0.8,0.5-1c4.6-3.4,7.4-8.2,10.9-12.6
	c3.9-4.8,8.7-8.9,13.1-13.3c0.6-0.5,1.4-0.8,2.2-1c0.2,0,0.6,0.9,1.1,1.7c0.5-0.9,1.1-1.9,1.8-3.3c-1,0.1-1.6,0.2-2.5,0.4
	c0.8-1,1.3-1.8,2-2.3c2-1.5,4.2-2.6,6.1-4.3c2.9-2.5,5.4-5.3,8.2-7.9c1.2-1.1,2.7-1.7,3.8-2.3c1.7-1.6,3.2-3.1,4.8-4.6
	c0.3,0.7,0.6,1.4,1.1,2.4c0.6-0.9,1-1.5,1.5-2.1c-0.1-0.1-0.2-0.2-0.2-0.3c-0.4,0.2-0.8,0.5-1.4,0.8c0.2-0.6,0.1-1.3,0.5-1.5
	c2.6-2,5.1-4,7.9-5.7c3.9-2.3,8.1-4.3,12.1-6.5c2-1.1,3.8-2.5,5.8-3.4c3.2-1.4,6.1-3.3,8.9-5.3c2.3-1.6,5.3-2.1,8-3.3
	c4.4-2,8.7-4,13.3-5.5c3.6-1.2,7.1-3.2,11-4.1c2.1-0.5,4.1-1.7,6.2-2.5c1.3-0.5,2.7-0.3,4-1.3c1.2-0.9,2.9-1.1,3.7,1.3
	c1.6-3.9,5.3-3.7,8.3-4.6c0.6-0.2,1.5,0.7,2.1,1c0.7-0.3,1.5-0.7,2.3-1c0.3-0.1,0.9,0.2,0.9,0.1c2.8-4.1,7.2-1.2,10.6-2.5
	c1.2-0.5,2.8-0.3,3.7-1c2.4-2,5.2-1.1,7.8-1.2c0.9,0,1.8,1.2,2.2,1.5c1-0.5,2-1.3,3-1.5c3.7-0.6,7.4-1,11.2-1.5
	c0-0.1,0.1,0.4,0.3,0.9c0.2,0,0.3-0.1,0.5-0.1c0-0.5-0.1-0.9-0.1-1.6c4.8,0,9.5-0.3,14.2,0.1c4,0.4,8-0.6,11.9,0
	c2.5,0.3,4.9,1.2,7.4,1.7c1.7,0.4,3.4,0.7,5.2,0.8c1.1,0.1,2.5-1.2,2.8,1c0,0,0.8-0.1,1.2-0.1c2.2-0.3,4.4-0.7,6.6-1
	c0.2,0,0.5,0.8,0.8,1.2c2.5-1.6,5.7-0.4,7,2.5c1-0.5,2.1-1.5,3-1.4c2.7,0.4,5.9-0.6,8.1,2.1c0.4,0.5,0.4,1.3,0.6,1.9
	c-0.2,0.2-0.5,0.3-0.7,0.5c0.7,0.2,1.3,0.5,2.1,0.7c-0.2-1.1-0.4-1.9-0.8-3.9c3.5,1.1,6.2,2,8.9,2.8c1.6,0.4,3.4,0.4,4.9,0.9
	c4.5,1.4,9,2.8,13.4,4.4c1.5,0.5,2.8,1.6,4.3,2.3c0.6,0.3,1.3,0.2,1.9,0.3c2.5,0.8,5,1.3,7.3,2.4c2,0.9,3.8,2.5,5.7,3.7
	c0.3,0.2,0.9,0.4,1.1,0.2c2.5-1.7,3.7,0.7,5.3,1.6c0.8,0.4,1.7,0.5,2.5,0.9c4,2,8.1,3.9,12,6.1c2.1,1.2,4,2.8,6,4.2
	c0.1,0.1-0.1,0.6-0.2,0.7c5.4,0.8,10,3.7,13.7,7.2c3.9,3.7,10,4.8,12.6,9.9c2.1,1.3,4.3,2.4,6.2,3.9c4.1,3.5,8.1,7.1,12,10.9
	c1,0.9,1.4,2.4,2.3,3.4c0.8,1,1.8,1.8,2.8,2.7c3.4,3.1,7,6,10.2,9.3c1.9,1.9,3.4,4.2,5.1,6.4c0.1,0.1,0.2,0.4,0.3,0.4
	c4.1,0.4,4.6,4.4,6.7,6.8c2.4,2.7,4.6,5.7,7,8.8c-0.7,0.3-1.2,0.4-1.5,0.7c-0.3,0.2-0.5,0.9-0.4,1c0.5,0.4,1.1,1,1.6,0.9
	c2.1-0.3,1.9-0.4,2.7,2.1c0.2,0.7,1.5,0.9,1.9,1.6c1.3,1.9,2.4,4,3.7,6c1.3,2,2.7,3.9,4,5.9c1.5,2.3,3.1,4.6,1.9,7.7
	c-0.2,0.6,0.6,1.6,0.9,2.4c0.2-0.1,0.5-0.2,0.7-0.3c-0.3-0.8-0.6-1.6-1.1-2.9c6.3,6,14.5,25.6,12.4,29.2c1,0.2,1.8,0.3,2.4,0.4
	c1,1.9,1.9,3.7,2.9,5.7c-0.2,0.1-0.9,0.5-1.5,0.8c1.9,1.3,3.1,2.8,2.4,5.4c2,0.6,5,10.3,3.7,13.3c0.5,0.1,1,0.2,1.5,0.3
	c-0.6,0.9-1.2,1.8-1.7,2.7c0.4,0,1.2-0.2,2.7-0.3c0,1.5-0.3,3.4,0.1,5.2c0.3,1.4,1.3,2.7,2.1,3.9c1.4,1.9,1.3,5.5,0.2,7.8
	c-0.3,0.5,0.5,2,1.2,2.5c2.9,2.2,1.7,5.3,1.9,7.9c0.2,3.2,0.8,6.3,1.5,9.4c0.8,3.9,1.1,8,1.4,11.9c0,0.3-1,0.7-1.7,1.1
	c0.5,0.1,1,0.2,1.6,0.3C510.9,246,511.6,253.1,510.1,260.8z M311.6,497.3c1.4-0.4,3.1-0.1,5.2-0.1c1.6-1.6,4.3-2.5,7.5-2.6
	c0.9,0,1.8-0.4,2.7-0.7c1.9-0.4,3.8-1,5.8-1.3c0.5-0.1,1,0.5,1.5,0.9c0.3-0.7,0.6-1.4,0.9-2.2c1.8-0.6,3.9-1.2,6-2
	c3.6-1.5,7.1-3.2,10.7-4.7c1-0.4,2.9,0.2,3.4-0.4c2.6-3.3,6.6-3.8,10.1-5.3c2-0.9,4.1-1.7,5.9-2.9c4-2.5,7.9-5.2,11.9-7.6
	c1.9-1.2,4-2.1,6-3.1c0.6-0.3,1.2-0.6,1.9-0.8c0,0.7,0,1.3,0,2c0.2,0.1,0.4,0.1,0.6,0.2c0.3-1.1,0.6-2.2,1.1-3.7
	c4.6-2.3,8.4-7.2,13.9-9.3c1.5-1.7,2.8-3.9,4.7-5.2c8.2-5.5,15.1-12.4,21.8-19.5c2-2.2,4.8-3.6,6.7-5.8c2.5-2.8,4.4-6.1,6.7-9.1
	c1.6-2,3.4-3.8,5-5.8c1.1-1.4,2.6-2.7,3.2-4.2c0.8-2.1,1.4-3.9,3.5-5.2c1.3-0.7,3.2-2.3,3-3.1c-0.6-2.4,0.5-3.3,1.8-3.6
	c0.2-1,0.3-1.6,0.4-2.3c0.4,0.3,0.8,0.6,1.2,1c0.1-3,7.6-14.7,9-15.1c0.2-1.2,0.4-2.2,0.6-3.2c1.1-0.1,2.2-0.7,2.2-1.1
	c-0.8-3.9,2-6.3,3.4-9.3c0.5,0.4,0.9,0.7,0.7,0.6c0.2-1.3,0.3-2.8,0.8-4.1c1.3-3.2,2.9-6.3,4.3-9.5c0.8-1.9,1.4-3.9,2.4-6.5
	c0.5,1.5,0.7,2.1,0.9,2.8c0.3-0.1,0.5-0.1,0.8-0.2c-2.9-5.2,1.8-9,2.3-13.6c0.5-5.1,3.1-10.1,4.7-14.8c0,0,0.4,0.4,0.8,0.7
	c0.1-0.1,0.2-0.2,0.3-0.3c-0.5-0.9-1-1.9-1.6-3c2.3-0.4,0.8-3.7,3.2-3.9c-0.2-0.4-0.6-0.9-0.6-1.3c-0.1-1.6-0.2-3.3-0.1-5
	c0-0.2,1.1-0.4,2-0.7c0-3.5,0.1-7.2,0-10.9c-0.1-4.1,2.6-7,4.1-10.5c-0.4,0-1-0.1-1.8-0.1c1.2-5.7-2.4-12,2-16.4
	c-0.6-1.5-1.3-2.4-1.3-3.3c-0.1-2.9,0.3-5.7,0.2-8.6c-0.1-4.5-0.5-9-0.5-13.6c0-1.7-1.3-3.8,1-5.1c-1.3-1.8-1-4-1.4-6
	c-0.2-1.6-0.9-3.1-1.5-4.6c-0.4-1.2-1.3-2.4,0.3-3.5c0.3-0.2,0.2-1,0.4-1.8c-0.6,0.4-0.9,0.6-1.3,0.9c-1.1-4.1,1.8-9-2.3-12.6
	c0.4-1.1,0.8-2.2,1.1-2.9c-0.7-1.4-1.5-2.6-1.9-3.8c-0.4-1.4,0.1-3.6-0.7-4.2c-2.9-2.1-0.2-6.3-3.3-8c0,0,0-0.2,0-0.3
	c-1-4.1-1.8-8.3-3.1-12.4c-0.6-1.8-0.5-3,0.7-4.3c0,0-0.1-0.3-0.3-0.6c-0.7,0.4-1.4,0.8-1.9,1.1c-2.3-1.6-1.7-4.2-2.8-6.2
	c-1.4-2.7-1.9-5.8-2.7-8.8c0-0.1-0.1-0.3-0.2-0.4c-3.1-1.1-3-4.3-4.1-6.6c-0.7-1.4-1.1-3-1.8-4.4c-0.8-1.6-2-2.9-2.7-4.5
	c-0.6-1.2-0.6-2.6-1-4.2c-2-0.3-3.8-3.4-2.9-5.2c-0.5-0.4-1.1-0.6-1.4-1c-0.6-1.1-0.9-2.3-1.6-3.4c-2.5-3.6-5.1-7.2-7.6-10.8
	c-1.3-1.9-2.1-4.1-3.4-6c-0.7-1.1-2.1-1.7-2.9-2.7c-1.8-2.4-3.1-5.2-5.5-7.3c-1.9-1.7-2.6-4.9-4.6-6.4c-2.9-2.2-4.5-5.6-7.6-7.5
	c-0.2-0.1-0.4-0.4-0.6-0.6c-3.5-3.2-6.7-6.8-9.9-10.4c-3.8-4.4-9.1-6.7-13-11c-3.4-3.7-8.1-6.1-12.1-9.2c-1.3-1-2.3-2.7-3.7-3.2
	c-1.8-0.7-2.5-1.6-2.5-3.3c0,0-0.3-0.1-0.5-0.1c0,0.6,0.1,1.2,0.1,1.5c-5.9-3.6-11.6-7.4-17.6-10.7c-6.9-3.8-14-7.2-21-10.8
	c-1.1-0.6-2.2-1-3.4-1.4c-3.2-1.2-6.3-2.3-9.5-3.5c-1.7-0.6-3.3-1.4-5.1-2c-2.6-0.9-5.3-1.6-7.9-2.6c-1.9-0.7-5.6-1.7-7.3-1.7
	c-0.1,0-0.3-0.1-0.5-0.2c0.3-0.3,0.6-0.5,1-0.7c-0.9-0.5-1.8-1.1-2.7-1.3c-1.4-0.2-2.4,0.9-4.4,0.2c-2.8-1-6.2-0.4-8.8-2.8
	c-0.5-0.5-1.8-1-2.2-0.7c-1.6,1.1-3.7-0.7-5.2,0.9c-0.2,0.2-1,0.1-1.4-0.1c-1.8-0.7-3.5-1.8-5.3-2.1c-3.3-0.5-6.6-0.4-10-0.7
	c-2.3-0.2-4.9,0.2-6.7-0.8c-1.8-1-3.3-1.5-5.3-1.5c-2.6,0.1-5.3,0.4-7.9-0.1c-3.4-0.7-7.3,1.8-10.4-1.3c-2.1,1.3-4.4,1-6.7,1.1
	c-2.9,0.2-6.3-0.7-8.8,1.9c-0.5,0.5-1.6,0.3-2.5,0.4c-3.5,0.1-7,0.1-10.4,0.4c-2.2,0.2-4.3,0.8-6.5,1.3c-1.3,0.3-2.7,1.2-3.7,0.8
	c-2.3-0.7-4.3,0-6.4,0.7c-1.9,0.6-3.9,1-5.8,1.5c-1-2.6-1.8-2.7-4.1-0.4c0.9,0,1.7-0.1,2.9-0.1c-0.6,0.7-0.9,1.2-1.2,1.3
	c-2.8,0.2-5.2,1.3-7.7,2.3c-4.3,1.8-8.8,2.8-13.3,4.1c-3.5,1-7.2,1.7-10.6,2.9c-2.5,0.9-4.8,2.3-7.3,3.4c-2.8,1.3-5.6,2.6-8.3,4
	c-4.9,2.5-9.6,5.2-14.5,7.7c-0.8,0.4-2.1,0.1-3.3,0.1c0.3,1.5-1.2,1.9-2.9,2.3c-0.7,0.2-1.2,0.8-1.9,1.2c-2.4,1.3-3.9,4.4-7.4,3.8
	c-0.2,0-0.6,0.3-0.6,0.4c0.6,2.1-1.7,1.6-2.4,2.6c-0.4,0.6-1.8,0.6-2,1.1c-0.7,2.3-2.6,2.5-4.4,2.9c-1,0.2-1.3,0.4-2,1.3
	c-1.6,1.9-2.4,4.7-5.6,5.1c-1.3,0.2-2.9,1-3.8,2C96.3,67.8,90.9,73,84.7,77.3c-1.4,1-3.2,1.8-4.2,3.2c-1.6,2.2-2.6,4.9-3.8,7.2
	c-1.3-0.2-2.1-0.4-2.3-0.4c-0.7,1.5-1,2.9-1.8,3.8c-1.6,1.7-3.8,2.9-5.3,4.8c-3.2,3.9-6.1,8.2-9.2,12.2c-0.6,0.8-1.8,1.1-2.2,1.4
	c-1.1,2.5-2,4.7-3.2,6.8c-1,1.8-2.3,3.3-3.4,5c-0.4,0.5-0.6,1.1-1,1.6c-1.2,1.6-2.6,3-3.6,4.7c-1.5,2.6-2.5,5.5-3.9,8.1
	c-1.7,3.3-3.7,6.3-5.3,9.6c-1.4,2.9-3.6,5.4-4.1,8.7c0,0.2-0.1,0.3-0.3,0.5c-3.4,3.5-4.2,8.3-5.9,12.6c-0.7,1.9-0.5,3.8-2.2,3.9
	c-0.4,2.4-0.5,4.5-1,6.4c-0.6,2.4-1.6,4.7-2.4,7c-0.1-0.1-0.5-0.4-0.8-0.6c-0.5,3.1-0.8,6.1-1.4,9c-0.4,2-1.3,3.8-1.6,5.8
	c-0.3,2.1-0.3,4.1-1.7,6c-0.7,1-0.6,2.6-0.7,4c-0.2,2.1,0.3,4.5-0.7,6.1c-1.2,1.9-1.7,3.7-1.6,5.8c0.1,2.6,0.3,5.3-0.1,7.9
	c-0.3,2.5-1.1,4.9-1.8,7.2c-0.4,1.2-0.5,1.1-0.4,3.1c0.1,2,0.1,4,0,6c0,0.6-0.8,1.2-1.3,2c0.1,0.1,0.7,0.3,1.2,0.5
	c-0.5,1.1-0.3,1.9-0.1,3.1c0.8,4-0.5,8.2,0.2,12.4c0.2,1.5-0.7,2.8-0.1,4.6c0.8,2.4,0.2,5.2,0.1,7.8c0,0.5-0.6,1.1-1,1.6
	c2.2,0.7,3.3,2.8,2.6,5.7c-0.1,0.5-0.5,1.2-0.3,1.6c1.5,2.8,1.5,3.2-0.8,4.3c-0.1,0-0.1,0.3-0.2,0.6c0.7-0.2,1.2-0.3,2.3-0.6
	c-0.5,2-0.9,3.5-1.3,5.1c0.1,0.1,0.7,0.3,0.9,0.7c0.8,1.4,1.3,2.9,2.2,4.2c0.9,1.3-0.8,2-0.2,3.6c0.8,2.3,0.4,5.1,2,7.4
	c0.5,0.7,0.6,2,0.6,3c0,0.7,0.1,3.8,0.3,4.4c1.7,4.9,3.4,9.7,5,14.6c1,3,2,6,3.1,9c0.8,2.4,2.9,4.9-0.2,7.3c-0.1,0.1,0,0.7,0.1,1.1
	c1.7-1,1.7-1,2.2,0.2c0.7,1.5,1.2,3.2,2.1,4.5c1.5,2.1,4,3.7,2.6,6.9c-0.1,0.2,0.4,0.8,0.6,1.1c0.5,0.5,1,1,1.3,1.4
	c-1.2,0.3-2.2,0.5-3.2,0.8c0,0.4,0,0.7,0,1.1c2.4-1.4,3.9-0.6,4.9,1.7c0.8,1.9,1.3,4.3,2.7,5.6c2.6,2.5,3.8,5.2,3.6,8
	c1,0.7,2,1.1,2.5,1.8c3.2,4.7,5.2,10.1,9.1,14.4c2.7,2.9,4.2,6.8,6.6,10c2,2.8,4.3,5.5,7,7.6c2.6,2.1,3.7,5.2,6.3,7.3
	c2.4,2,4.1,4.9,6,7.5c0.4,0.6,0.4,1.6,0.6,2.3c1.3,0.3,2.2,1.1,3,1.9c0.6,0.6,1.1,1.7,1.8,1.8c4.4,0.9,6.7,4.4,9.5,7.3
	c0.2,0.2,0.5,0.6,0.8,0.6c2.2,0.5,4,3.2,3.6,5.4c-0.1,0.6,0.4,1.2,0.6,1.8c0.2-0.1,0.4-0.1,0.6-0.2c-0.2-0.4-0.4-0.8-0.6-1.3
	c0.2-0.1,0.3-0.3,0.5-0.4c1.6,1.2,3.2,2.4,4.9,3.7c-1.2,0.2-2.1,0.4-3.1,0.6c0.1,0.2,0.1,0.5,0.2,0.7c1.8-0.4,3.6-0.7,5.9-1.2
	c0,0.5-0.1,1.3,0,2.1c0,0.3,0.6,0.6,1,0.7c0.6,0.2,1.4,0.1,2,0.4c1.4,0.8,2.7,1.8,3.8,2.8c0.5,0.5,0.7,1.4,0.8,1.5
	c3.3,0.6,4.8,4,7.2,4.6c3.2,0.8,4.4,4,7.2,4.7c3,0.7,5.4,2.2,6.5,5.6c0.5-0.9,0.7-1.5,0.8-1.6c1.9,0.9,3.9,1.4,5.2,2.6
	c4.9,4.6,12.2,4.3,17.1,8.8c0.1,0.1,0.3-0.1,0.5,0c2,0.7,4.1,1.4,6.1,2.2c1.1,0.4,2.2,1.1,3.3,1.5c1.9,0.8,3.7,1.5,5.6,2.3
	c0.3,0.4,1,0,1.5,0.1c1.7,0.4,3.3,0.9,5,1.5c5.1,1.8,10.2,3.6,15.3,5.4c0.7,0.2,1.6,0,2.3,0.1c2,0.3,4,0.7,6,1.1
	c1.5,0.3,3.1,1,4.6,1.1c3,0.1,5.9,0,8.4,1.9c0.9,0.6,1.9,1.2,2.9,1.3c0.8,0.1,1.8-0.9,2.6-0.8c4.5,0.5,9,0.7,13.3,1.8
	c3.8,0.9,7.5,0.1,11.3,0.5c1.6,0.2,3.2,0.7,5,1.1c0-0.1,0-0.6,0.1-1.2c6.4,0,12.6,0,18.9,0c1.7,0,3.6,0.1,5.1-0.5
	c2.7-1.1,5.1-1.4,7.6,1.4c0.1-1.5,0.2-2.3,0.3-2.5c4.7-0.6,9.2-1.1,13.7-1.7c2.6-0.3,5.1-0.9,7.7-1.2c0.7-0.1,1.4,0.5,1.6,0.6
	C308.5,499,310,497.8,311.6,497.3z"/>
<g>
	<path fill="#6E6E6E" d="M428.9,220.2c-7.4-2.8-15.1-3.8-22.8-4.7c-3-0.4-4,0.6-3.7,3.6c0.3,2.8,0.2,5.7,0.6,8.5
		c0,5.4-0.1,10.8,0,16.2c0.1,2.7,1.3,3.8,4,3.6c7.5-0.5,14.5-2.4,21.1-6.1c4.9-2.7,7.2-6.7,7-12.4
		C434.9,224,433.5,221.9,428.9,220.2z"/>
	<path fill="#6E6E6E" d="M486.1,215.1c-1-5.5-2.8-10.6-3.5-16.1c-0.4-2.7-1.6-5.7-2-8.7c-0.1-0.6-0.2-1.1-0.6-1.6
		c-2.4-2.8-2.2-6.7-3.3-9.9c-1.2-3.4-2.9-7-3.7-10.7c-0.9-4-3.8-7.4-4.6-11.5c-0.1-0.4-0.5-0.8-0.7-1.2c-1.2-2.2-2.8-4.4-3.4-6.8
		c-0.6-2.4-2.2-4.1-3.4-5.9c-1.4-2.1-2.5-4.4-3.5-6.7c-1.1-2.4-2.4-4.8-3.9-6.6c-3-3.7-5-7.9-8.1-11.5c-3.2-3.7-5.8-7.9-9-11.7
		c-1-1.1-2.8-1.6-3.2-3.3c-0.8-3.6-4.2-5.2-6.2-7.9c-1.5-2.1-4.1-3.5-5.8-5.6c-2.7-3.2-5.9-5.9-9-8.7c-2.4-2.1-5.5-3.6-7.6-5.9
		c-1.9-2.1-4.1-4.2-6.4-5.7c-4.8-3.1-8.8-7-13.6-9.9c-4.4-2.7-8.9-5-13.2-7.8c-1.8-1.2-4.1-1.6-5.6-3c-2-1.9-4.7-2.4-6.9-3.6
		c-2.5-1.4-5.4-2.4-8.2-3.4c-4-1.3-7.5-4.1-11.9-4.6c-0.4,0-0.9-0.3-1.2-0.6c-1.9-2.1-4.9-1.8-7.2-3.3c-2.4-1.6-6-0.5-9-2.5
		c-1.9-1.3-5.1-1.7-7.4-2c-5.2-0.6-10.1-2.4-15.2-3.1c-2.9-0.5-6.2,0.1-8.8-1c-2.6-1.2-5.1-1.6-7.7-1.6c-7.8,0-15.7,0-23.6,0
		c-13.1-0.1-26.2-0.4-40,2.5c-4.2,0.8-8.1,2.8-12.4,2.8c-4.5,0-8.4,3.2-13,2.6c-1.8,2.4-4.5,1.9-7,2.2c-0.4,0.1-1,0.3-1.2,0.6
		c-0.9,1.7-2.5,1.5-4,1.7c-0.9,0.1-2,0-2.5,0.5c-2.6,2.6-6.5,2-9.5,3.9c-2.6,1.7-5.7,3.1-8.7,4.2c-2.4,0.9-4.4,2.5-6.7,3.2
		c-2.4,0.7-4.5,2.2-6.6,3.3c-2.3,1.1-4.7,2.5-6.9,3.7c-3.3,1.8-6.4,4.1-9.6,6c-3.2,2-6.8,3.9-9.5,6.6c-1.6,1.6-3.6,2.2-5.2,3.6
		c-3,2.7-6.1,5.3-8.9,8.2c-1.6,1.6-3.8,2.3-5.4,3.8c-3.7,3.6-7.3,7.3-10.9,11.1c-2.4,2.6-5.2,4.7-7,7.9c-0.6,1.2-1.4,2.7-2.6,3.5
		c-2.4,1.6-4.5,3.8-5.6,6.2c-2.1,4.6-6.2,7.7-8.7,12.2c-1.8,3.3-4,6.7-6.3,9.9c-0.6,0.8-2,0.7-2,1.8c0.1,3-2.6,4.5-3.3,7.2
		c-0.5,1.8-1.4,4-2.6,5.5c-2.7,3.5-4.1,7.7-6,11.6c-1.3,2.7-3.8,5.4-3.1,9c0,0.3-0.2,0.8-0.5,1c-2.3,2-2.8,5.1-3.4,7.6
		c-0.9,3.8-3.6,7.2-3.3,11.3c0,0.1-0.1,0.3-0.2,0.5c-2.4,5.2-3.3,10.9-4.3,16.5c-0.3,1.6,0.5,3.7-0.7,4.7c-1.7,1.5-1.5,3.1-1.6,4.9
		c-0.1,3.2-0.2,6.3-0.3,9.5c-0.1,0.8,0.2,1.9-0.6,2.4c-1.6,1-1.4,2.6-1.4,4.1c-0.1,10.1-0.5,20.2-0.1,30.3
		c0.2,6.9-0.9,13.8,1.7,20.8c2,5.4,0.1,12,2.7,17.9c1,2.4,1.5,5.5,1.8,8.1c0.6,4.9,2.9,9.2,3.4,14c0.4,3.5,3.2,6.2,2.9,9.9
		c0,0.3,0.6,0.6,0.7,0.9c1.2,2.7,2.8,5.4,3.3,8.3c0.6,3.3,2.8,5.6,3.7,8.7c0.7,2.4,2.7,4.4,3.4,6.8c0.7,2.6,2.5,4.7,3.6,7.1
		c0.7,1.5,0.9,3.9,2.5,5c1.6,1.1,2.5,2.9,3.2,4.3c1.7,3.2,3.5,6.3,5.4,9.3c0.8,1.2,2,1.5,2.6,2.9c1.3,2.8,3.2,5.2,5,7.8
		c0.5,0.6,1.7,0.4,1.9,1.5c0.8,3.6,4,5.5,6.1,8.2c3.2,4,7,7.5,10.6,11.2c3.6,3.6,7.2,7.2,10.9,10.8c2.2,2.1,4.3,4.2,6.6,6.1
		c2.1,1.6,3.7,4.3,6,5.1c3.9,1.4,6.7,4.3,9.6,6.6c5.2,4.1,11.1,7,16.5,10.6c1,0.7,1.5,2.1,3.1,2.2c2.7,0.2,4.7,2.4,7.1,3.5
		c1.6,0.7,3.8,1,4.9,2.3c1.8,2.1,4.6,2.6,6.7,3.5c2.8,1.2,5.5,3.6,9,3.3c0.4,0,0.9,0.2,1.1,0.4c2,2.1,5.1,2.6,7.5,3.3
		c4.2,1.2,8,4.1,12.7,3.5c0.2,0,0.6,0,0.8,0.2c3.3,3.4,8.3,1.1,12.2,3.8c2.5,1.8,6.5,1.2,9.9,2.2c5.7,1.7,12.1,0.2,17.9,2.7
		c17.9-0.3,35.9,2.1,53.8-1.6c3.2-0.7,6.6-0.5,10-0.7c0.8-0.1,2.1,0,2.4-0.5c1.3-1.9,3.1-1.4,4.9-1.6c2.2-0.2,4.8,0.6,6.5-0.7
		c3.5-2.6,7.9-2.6,11.8-3.6c4.2-1.1,7.8-3.7,12.2-3.6c0.2,0,0.3-0.2,0.5-0.3c2.7-2,5.9-3.2,9.1-3.8c2.8-0.6,4.8-3.4,7.9-3
		c0.1,0,0.3-0.3,0.4-0.4c2.1-1.8,4.7-2.6,7.2-3.7c2.4-1.1,4.9-2.3,7-3.7c2-1.3,4.4-2.4,6.3-3.3c3.8-1.7,6.5-4.7,10.1-6.5
		c3.1-1.6,6.2-3.7,9-6.1c2.4-2.1,5-3.8,7.7-5.6c3.6-2.4,6.6-5.7,9.8-8.6c3.4-3.1,7.1-5.7,10.3-9.1c3.6-3.8,6.7-8.1,10.3-11.8
		c4.2-4.2,7.6-9,11.4-13.4c2.9-3.3,5.2-7.1,7.4-10.9c0.4-0.6,1.6-0.5,1.7-1.4c0.6-4.1,4.7-6.3,5.9-10.3c0.4-1.5,1.1-3.9,2.5-5
		c2.2-1.7,2.2-4.4,3.6-6.5c1.3-1.9,2.5-4.5,3.4-7c0.8-1.8,1.4-4,2.7-5.7c1.9-2.6,2.9-5.6,3.6-8.4c0.9-3.5,3.8-6.4,3-10.3
		c-0.1-0.2,0.2-0.6,0.4-0.7c1.8-0.7,1.5-2.3,1.7-3.7c0.1-0.8,0-1.9,0.5-2.5c3-3.6,1.4-8.5,3.7-12.6c1.6-2.9,2.1-7,2.4-10.3
		c0.6-7.1,2.9-13.8,2.9-20.9C488.1,255.6,489.5,235.3,486.1,215.1z M364.5,362.4c-0.8,3.6-3,3.9-5.9,3.8c-8.5-0.2-17.1-0.3-25.6-0.4
		c-1.2,0-2.3,0-3.1-1.1c-0.7-0.9-1.8-0.7-2.7-0.7c-16.4,0-32.9,0-49.3,0c-1.2,0-2.5-0.1-3.3,1.2c-0.5,0.7-1.3,0.7-2.1,0.7
		c-4.5,0.1-9,0.1-13.5,0.2c-1.9,0-2.7-1-3.8-2.6c-2.2-3.4,0.4-5.8,0.8-8.6c0-0.3,0.5-0.6,0.8-0.7c3.8-1,7.3-3.1,11.5-2.7
		c1.7,0.2,3.3,0.2,4.7-1.5c0.8-1.1,2.7-0.7,4.1-0.6c7.6,0.5,10.1-3.3,9.8-10.1c-0.1-3.6,0.1-7.3,0.2-10.9c0.1-2.2-0.5-4.6,1.6-6.4
		c0.4-0.3,0.3-1.4,0.3-2.2c0-12.2,0-24.4,0-36.6c0-1.4,0.2-2.9-1.3-3.9c-0.8-0.5-0.6-1.6-0.6-2.4c-0.1-2.6-0.1-5.2-0.2-7.8
		c-0.1-2.4-1.4-3.7-3.8-3.8c-2.6-0.1-5.2-0.2-7.8-0.2c-14.9-0.1-29.8-0.1-44.7-0.2c-1.5,0-3.1,0.2-4.2-1.3c-0.6-0.7-1.6-0.5-2.5-0.5
		c-14.7,0-29.4,0-44.1,0c-4.3,0-8.4,4.1-8.4,8.3c-0.1,23.9,0,47.7,0,71.5c0,4.6,1.8,6.3,6.4,6.6c2.1,0.1,4.2,0,6.1,1.7
		c1.1,1,3.5,0.7,5.3,0.5c4.4-0.5,8.4,1.5,12.4,2.7c3.6,1.1,4,6.9,1.8,9.9c-1.5,2.1-3.2,2.1-5.1,2.1c-14.3-0.1-28.6-0.3-42.9-0.4
		c-1.1,0-2.3,0-3.1-1.1c-0.6-0.9-1.6-0.8-2.6-0.8c-5.3,0-10.7,0-16.1,0c-1.2,0-2.3-0.1-3.1,1.1c-0.6,0.9-1.5,0.8-2.4,0.8
		c-9.8,0.1-19.6,0.3-29.4,0.3c-3.9,0-4.3-0.7-4.6-4.6c-0.3-4.4,2.3-7.3,7-8c4.7-0.7,9.4-1.4,13.9-2.5c2.2-0.5,4.4-1.6,6.8-2
		c0.5-0.1,1-0.3,1.1-0.8c0.7-2.8,2.8-4.9,2.8-8c0-13.7,0.4-27.5,0.5-41.2c0.1-14.4,0-28.8,0-43.2c-0.1,0-0.2,0-0.3,0
		c0-27.7-0.1-55.3-0.1-83.1c0-4.5-1.7-7.6-4.8-10.3c-0.3-0.3-0.8-0.7-1.2-0.6c-5.8,0.8-10.8-3.1-16.6-2.5c-2.6,0.3-5.2-0.1-7.4-2.2
		c-1.9-1.7-1.9-8.1-0.2-9.9c2.3-2.5,5-2.2,7.8-2.2c4.7,0,9.4,0,14.1,0.1c2.2,0.1,4.6-0.5,6.4,1.7c0.4,0.4,1.6,0.3,2.5,0.3
		c18.8,0.3,37.7,0.4,56.5,0c1.2,0,2.5,0.1,3.3-1.2c0.2-0.3,0.8-0.6,1.2-0.6c4.5-0.3,9.1-0.7,13.5,0.1c1.7,0.4,3.8,1.9,4,4.4
		c0.5,5.6-2.2,9-8,9.4c-2,0.2-4,0.1-6,0.3c-1.9,0.1-3.7,0-5.5,1.6c-1.5,1.3-4.1,0.5-6.2,0.6c-4.4,0.3-7.7,3.5-7.7,7.8
		c0,22.4,0,44.9,0,67.4c0,4.8,3.3,8.3,8.2,8.4c32.2,0.6,64.3,0.8,96.5-0.1c3-0.1,5.9-1.9,9.1-1.9c0.3,0,0.9-0.3,0.9-0.5
		c0-2.8,2.6-4.5,2.6-7.3c0-16.9,0-33.8,0-50.7c0-1.2,0-2.3-1.1-3.1c-0.9-0.7-0.7-1.8-0.7-2.7c-0.1-2.8-0.2-5.6-0.2-8.4
		c0-3.2-1.6-5-4.1-7c-2-1.6-4.5-1.1-6-2.3c-3-2.4-6.9-1.3-9.8-3.6c-1.3-1.1-3.3-0.6-5-0.8c-4.5-0.6-6.5-2.9-6.1-7.5
		c0.1-1.9,2.5-4.4,4.5-4.4c7.4,0,15.2-1.4,22.1,0.5c9,2.4,17.9,1.2,26.8,1.6c9.1,0.4,18.3,0,27.4-0.1c1.3,0,2.7,0.2,3.6-1.2
		c0.5-0.8,1.6-0.7,2.4-0.7c5.8-0.1,11.5,0,17.3-0.3c5-0.2,7.1,5,5.6,8.4c-1.4,3-3.9,5.4-7.6,5.9c-1.7,0.2-3.5,0.2-5.2,0.3
		c-1.3,0.1-2.5,0.1-3.3,1.4c-0.2,0.3-0.6,0.6-0.9,0.6c-3.6-0.6-6.3,1.9-9.5,2.7c-2.3,0.7-4.2,3.1-4.3,6c-0.1,5.7-0.2,11.3-0.2,17
		c0,50.7,0.1,101.3,0.2,151.9c0,2.4-0.4,5,2.2,6.6c0.3,0.2,0.6,0.8,0.8,0.8c3.7-0.2,6.3,3.4,10.2,2.7c1.6-0.3,3.5-0.3,4.6,1.6
		c0.2,0.4,1.1,0.6,1.6,0.5c3.4-0.6,5.5,2.5,8.5,2.8c0.8,0,0.8,0.8,1,1.5c0.2,0.9,0.2,1.9,0.7,2.5
		C365.7,359.7,364.8,360.8,364.5,362.4z M448,247.4c-4.2,6.6-10.3,10.6-17.8,12.5c-7.9,2-15.9,3.3-23.9,4.8c-4,0.7-4.9,2-4.4,6.1
		c0.4,3,0.8,6.1,1.3,9.1c0.4,2.8,1.4,3.7,4.2,4c2.8,0.2,5.5,0.5,8.2,0.7c5.1,0.5,7.2,3.9,5.4,8.7c-1.8,4.6-5.2,7-10,7
		c-5.2,0-10.5,0-15.7,0c-5.3,0-10.7,0-16,0c-2.7,0-5.2-0.8-7.2-2.9c-1.3-1.4-1.7-3-1.5-4.8c0.6-3.9,3.3-6.8,7.2-7.3
		c2.1-0.3,4.1-0.4,6.1-0.7c2.2-0.3,3-1.2,3-3.4c0.1-4.6,0.1-9.2,0-13.8c0-2.2-0.8-3.1-3.1-3.8c-2.4-0.7-4.9-1.5-7.1-2.8
		c-4.1-2.3-6.5-5.9-7.6-10.4c-0.6-2.3,0.3-3.4,2.7-3.5c3.5-0.1,7-0.1,10.5-0.1c3.4,0,4.3-0.9,4.3-4.2c0.1-7.3,0.1-14.6-1.7-21.7
		c-0.9-3.9-1.7-4.5-5.6-4.8c-4.8-0.4-9.5-1.1-14.3-1.8c-3-0.4-3.8-1.4-3.8-4.4c-0.1-4.9,2.9-8.2,7.9-8.7c2.8-0.3,5.6-0.3,8.5-0.4
		c13.5-0.3,27.1-0.4,40.6-0.3c5.7,0.1,11.3,0.5,16.6,2.8c9.2,3.9,17.8,13.7,17.5,26.3C452.2,235.9,451.5,242,448,247.4z"/>
</g>
</svg>
