<?xml version="1.0" encoding="utf-8"?>
<!-- Generator: Adobe Illustrator 18.1.1, SVG Export Plug-In . SVG Version: 6.00 Build 0)  -->
<svg version="1.1" id="Layer_1" xmlns="http://www.w3.org/2000/svg" xmlns:xlink="http://www.w3.org/1999/xlink" x="0px" y="0px"
	 viewBox="0 0 512 512" enable-background="new 0 0 512 512" xml:space="preserve">
<path fill="#6E6E6E" d="M510.6,262.2c-0.1-2.1-1-4.2-0.6-6.1c0.3-1.5,0.7-2.3-0.3-3.7c-0.5-0.8,0.8-2.6,0.7-3.9
	c-0.6-4.3,1.6-8.6-1.7-12.9c-1.4-1.9-0.4-5.6-0.4-8.5c0-2.4,0-4.7,0-7.1c-0.2,0-0.5,0-0.7,0c-0.4,0.7-0.7,1.4-1.1,2.1
	c-0.3-1.2-0.1-3.2,0-3.2c2.4,0.1,1.1-1.5,1-2.2c-0.2-1.2-0.9-2.2-1.1-3.4c-0.8-4.7-1.5-9.3-2.3-14c-0.2-0.9-0.5-1.9-0.8-2.8
	c-0.1-0.4-0.4-0.7-0.6-1c2.3-1,0.5-1.9,0.1-3c-0.6-1.6-0.9-3.2-1.3-4.8c-0.6-1.9,0.3-4.7-1.9-5.1c-0.6-2.5-1-4.7-1.6-6.8
	c-0.4-1.6-1-3.2-1.7-4.7c-1.1-2.6-2.3-5.1-3.4-7.7c-0.3-0.7-2.9-0.5-0.9-2.1c-1.4-1.3,0.8-5.2-3.1-4.5c0.2-0.6,0.5-1.2,0.4-1.6
	c-0.6-1.8-1.4-3.6-2.1-5.4c-0.5-1.4-0.8-2.9-1.5-4.2c-2-3.8-4.1-7.4-6.1-11.2c-1.6-3-2.6-6.3-4.5-9.1c-1.8-2.7-3.8-5.2-5.3-8.2
	c-2.1-4.3-5.3-8-7.9-11.9c-3.2-4.8-7.3-9.1-11.1-13.6c-4.2-5-8.3-10-12.6-14.8c-0.9-1-2.5-1.5-3.6-2.1c1.2-0.8,0.2-1.7-1-2.4
	c-1.4-0.9-3-1.5-4.2-2.5c-2.6-2.4-4.9-5.2-7.6-7.6c-2.4-2.1-5.1-3.8-7.5-5.9c-1.3-1-2.2-2.4-3.5-3.4c-2.1-1.8-4.2-3.6-6.5-5.3
	c-1.2-0.9-2.7-1.5-4.1-2.2c-0.2,0.2-0.4,0.5-0.5,0.7c0.6,1,1.3,2,1.9,3c-3.7,0.1-1.2-5.1-4.5-5.1c-0.1,0.4-0.3,1-0.5,1.7
	c0.4-3.3-2.3-4.1-4.2-5.5c-1.2-0.9-2.8-1.3-4.1-2c-2.1-1.2-4.2-2.5-6.3-3.7c-0.2-0.1-0.7,0.1-0.8,0.1c-0.9-0.8-1.7-1.9-2.8-2.5
	c-3.5-2-7.1-3.8-10.7-5.6c-3.1-1.5-6.2-3-9.3-4.4c-0.8-0.4-1.8-0.4-2.7-0.6c0.3,0.7,0.7,1.5,1,2.2c0.1,0.1,0.1,0.3,0,0.1
	c-1,0.6-1.9,1.1-2.4,1.4c-0.3-0.9-0.7-1.8-0.9-2.5c0.4-0.7,0.9-1.5,1.4-2.3c-0.2-0.1-0.4-0.3-0.6-0.4c-0.4,0.3-0.8,0.6-0.7,0.5
	c-1.5-0.8-2.5-1.6-3.7-2.1c-4.8-1.9-9.7-3.7-14.5-5.6c-1.1-0.4-2.2-0.9-3.3-1.1c-1.1-0.3-2.2-0.2-3.3-0.5c-1.4-0.5-2.7-1.2-4.4-2
	c0.4,0.8,0.6,1.3,0.9,2c-2.4-1.1-4.5-2.1-6.6-3c-0.8-0.4-1.7-0.9-2.6-1c-3.1-0.2-6-1.2-8.9-2.1c-5.1-1.5-10.8-0.6-15.9-2.6
	C290,2,288.6,2,287.3,1.9c-4.7-0.5-9.7,2-14-1.7c-0.1-0.1-0.4,0-0.6,0c-3.8,0-7.5,0-11.7,0c0.7,0.9,1.1,1.4,1.5,1.9
	c-0.9,0.2-1.3-0.2-1.7-0.6c-0.5-0.4-1-1.2-1.5-1.2c-1.5-0.2-3,0-4.5,0c-0.5,0-1.4,0.2-1.4,0.4c-0.2,1.8-1.1,0.7-1.7,0.4
	c-1.8-1-3.5-1.3-5,1.1c-0.1-0.8-0.2-1.3-0.2-2.1c-3.8,0.9-7.9-1.2-11.5,1.7c-0.9,0.7-2.6,1.4-3.4,1c-4-1.9-8-0.3-11.9-0.1
	c-3.3,0.1-6.6,1.5-9.9,2.1c-2.2,0.4-4.5,0.1-6.5,0.8c-2.6,0.8-4.8,2.6-8,1.7c-1-0.3-2.5,1.2-3.8,1.6c-2.7,0.8-5.5,1.7-8.3,2.2
	s-5.5,1.1-6.8,4.1c-0.6-0.9-1-1.6-1.2-1.8c-4.5-0.2-7,3.4-11,3.8c-2.6,0.2-5.1,2.3-7.6,3.4c-1.1,0.5-2.3,0.7-3.4,1.1
	c-1.2,0.4-2.4,0.6-3.4,1.1c-3.4,1.6-6.8,3.2-10.1,5c-1,0.5-1.6,1.7-2.5,2.6c-0.1,0-0.8-0.6-1.1-0.5c-3.9,2.3-7.7,4.7-11.5,7.2
	c-0.5,0.3-0.7,1-0.6,0.8c-1.6,0.4-2.6,0.4-3.4,0.9c-1.9,1.3-3.7,3-5.6,4.3c-1.3,0.9-3,1.2-4.1,2.2c-2.4,2.1-5.3,3.3-7.6,5.9
	c-2.9,3.4-8,4.8-11.4,7.9c-8,7.3-15.5,15.1-23.1,22.7c-1,1-1.4,2.8-2,4.2c0,0.1,0.2,0.3,0.3,0.5c-0.1,0.1-0.2,0.2-0.4,0.3
	c-0.5-0.3-0.9-0.7-1.1-0.8c-2.1,1.9-4.2,3.7-6.1,5.8c-2.9,3.2-5.6,6.7-8.4,10.1c-0.8,1-1.8,2.2-2,3.4c-0.2,1-0.4,1.4-1.1,2.2
	c-4.6,6-8.9,12.1-13,18.4c-1.9,3-3.4,6.3-4.9,9.5c-0.5,1.1-0.1,2.5-0.6,3.5c-0.9,1.7-2.4,3-3.4,4.7c-1.2,1.9-2.2,3.9-3.1,6
	c-1,2.3-1.7,4.7-2.3,6.3c-1,1.3-1.9,2.1-2.2,3.1c-1.3,4.1-1.5,8.5-4.1,12.2c-0.7,0.9-0.9,2.2-1.1,2.9c0.9,0.8,1.5,1.4,2.4,2.2
	c-1.3-0.1-2.1-0.1-3.2-0.2c0.1,0.8,0.4,1.8,0.2,1.9c-3.5,2.2-1.8,6-2.9,8.9c-0.5,1.3-2.1,2.8-1.8,3.7c1.2,3.9-2.4,6.7-1.8,10.6
	c0.3,2.4,0.4,6.2-2.3,8.6c-0.7,0.6-0.6,2.1-0.6,3.2c-0.1,4.3,1.1,8.8-2.1,12.7c-0.3,0.4-0.1,1.3-0.1,1.9c0.1,1.7,0.5,3.3,0.4,5
	c-0.1,4.7-0.5,9.3-0.5,14c-0.1,5.5,0.1,11.1,0.1,16.7c0.1,6.6,0.1,13.2,0.2,19.8c0,0.7,0.7,2.1,0.6,2.1c-2,1.1-0.1,1.7,0.3,2.4
	c0.2,0.4,0.5,0.9,0.6,1.3c0.2,1.2,0.3,2.5,0.5,3.7c0.7,4.1-1.7,8.8,2.5,12.2c0.2,0.1-0.2,0.8-0.2,1.2c-0.3,4.4-0.3,8.6,3.4,12
	c-0.5,0-0.9-0.1-1.9-0.1c3,8.8,5.8,17.3,8.7,25.9c0.6-0.3,0.9-0.5,1.2-0.7c0.3,0.3,0.5,0.6,0.8,1c-0.9,0.3-1.7,0.5-2.6,0.8
	c4.4,1.5,2.5,4.4,2.6,6.7c0.7,0.1,1.3,0.2,1.5,0.2c0.7,2.4,1.1,4.8,2,6.9c2,4.2,4.3,8.3,6.4,12.5c2.8,5.4,5.6,10.7,8.4,16
	c0.5,1,1.7,1.7,2.3,2.7c1.8,2.9,3.3,6,5.3,8.8c3.3,4.8,7.3,9.2,10.2,14.3c2.2,3.7,5,6.7,7.9,9.7c1.2,1.3,2.5,2.5,3.8,3.8
	c2.6,2.6,4,6.6,8.5,6.9c0.2,0,0.3,0.4,0.4,0.7c0.4,0.8,0.5,1.8,1.1,2.4c1.9,1.9,4,3.7,5.9,5.6c3.7,3.8,7.3,7.7,11.1,11.4
	c1.1,1.1,3,1.4,4,2.5c1.8,2,3.7,2.9,6.3,1.8c-0.7,0.6-1.5,1.3-2.7,2.2c8.6,5.4,16.8,10.8,25.1,15.8c8.1,4.8,16.2,9.8,24.7,13.6
	c8.2,3.7,17,6,26,9.2c-0.7-1.1-1.2-1.8-2-3.1c2.9,0.8,1.9,4.6,5.3,4.3c2.1-0.2,4.3,1.6,6.6,2.1c2.2,0.5,4.5,0.6,6.7,0.9
	c-0.2,0.3-0.4,0.7-0.9,1.5c3.3,0,6.3,0,9.1,0c0.7,0.6,1.4,1.7,2.2,1.8c2.7,0.4,5.6,0.9,8.2,0.3c1.6-0.4,2.1,0.6,3,1
	c1.1,0.5,2.1,1.4,3.2,1.6c4.6,0.8,9.2-0.9,13.8,0.2c2.5,0.6,5,1.1,7.7,1.7c0,0,0.3-0.6,0.8-1.3c0.1,0.9,0.2,1.8,0.3,1.8
	c0.6,0.1,1.2-0.1,1.8-0.2c0.3,0,0.5,0,0.8,0c0.9,0,1.8,0,2.7-0.1c0.2,0,0.3-0.5,0.4-0.7c2.1,2.9,5,0.4,7.4,1.1
	c0.9,0.3,2.1-0.5,3.2-0.9c0.2,0.2,0.6,0.9,1,0.9c4.7-0.1,9.6,0.2,14.2-0.6c4.1-0.7,8.1-1.9,12.3-1.7c4.3,0.2,8.7,0.8,12.8-1.6
	c1-0.6,2.4-0.6,3.7-0.8c0.6-0.1,1.6,0.2,1.9-0.1c1.4-1.3,2.6-0.9,3.8,0.1c1.4-1,2.7-2,4.1-3c1.4,2.2,9.1,0.4,11.4-2.5
	c1.3,0.4,2.4,1.2,3.3,1c2-0.5,3.9-1.5,3.8-3.4c0.9,0.4,1.7,1.2,2.4,1.1c1.6-0.3,3-1.1,4.5-1.6c2.1-0.7,4.3-1.1,6.3-1.9
	c3.3-1.4,6.4-3,9.7-4.5c4.8-2.1,9.7-4.1,14.5-6.3c2.4-1.1,4.7-2.5,7-3.6c3.8-1.9,7.6-3.5,11.3-5.5c1-0.5,1.4-2,2-2.8
	c1.2-0.3,2.8-0.2,4-1c3.4-2.1,6.6-4.6,9.9-6.9c2.9-2.1,5.7-4.1,8.6-6.3c0.4-0.3,0.7-0.9,0.8-1.4s0-1.1,0-1.6
	c0.3,0.5,0.6,1.1,0.9,1.6c1-1.3,4-1,3.2-4c0.7,0.2,1.4,0.6,1.5,0.4c2.3-2.1,4.6-4.1,7.2-5.9c4.4-3,7.9-7.2,11.7-11
	c1.7-1.6,3.3-3.3,5-5c3.8-3.8,7.9-7.3,9.7-12.6c0.1-0.3,0.4-0.5,0.6-0.7c2.5-2.4,5.8-4.5,7.1-7.4c1.1-2.5,3.2-3.5,4.4-5.5
	c0.6-1,1-2,1.6-2.9c2-2.7,4.3-5.1,6-8c1.4-2.3,2.6-4.6,4.2-6.7c1.2-1.5,2.4-3.1,3.3-4.7c0.9-1.6,1.7-3.4,2.3-5.2
	c0.3-0.7,0-1.6,0-2.5c0.4-0.2,1.3-0.4,1.6-0.8c1.4-3,2.6-6.1,4.1-9c1-1.9,0.1-4.9,3.2-5.9c0.4-0.1,2.3-1.6,0.3-2.8
	c-0.1-0.1,0.4-2,0.8-2c2.7-0.4,2.3-2.7,2.9-4.3c1.1-3.1,1.9-6.4,3.4-9.3c1.2-2.3,1.6-2.1,1-3.1c1.4-4.2,2.5-7.7,3.6-11.2
	c-0.4-0.3-0.9-0.7-1.9-1.5c1.2,0.3,1.8,0.4,1.9,0.4c2.3-6.3,4.2-12.6,4.4-19.3c0.3-0.2,1.3-0.5,1.4-0.8c0.1-2.4,0-4.8,0-7.2
	c0-0.9,0.1-2,0.6-2.6c2.1-2.5,1.7-5.6,2.2-8.4c0.5-2.7,0.3-5.6,0.2-8.4c0-0.7-0.8-1.4-1-1.6c0.4-1.1,0.4-2.5,1.2-3.2
	c2-1.8,1.6-4,1.6-6.2C510.7,266.9,510.8,264.5,510.6,262.2z M502.7,241.8c0.5,3.1,1.1,6.3,1.4,9.5c0.1,1-0.9,2.1-0.9,3.1
	c-0.1,6,0,12-0.1,18c0,1.4-0.1,3-0.7,4.1c-2,3.9-1.3,7.9-1.2,12c0,2.5,0.9,5.6-1.4,8c-1,1.1-1.1,3-1.9,5.2c1.4-0.9,2-1.3,2.4-1.6
	c-0.7,2.2-1.3,4.4-2,6.5c-0.2,0.6-0.6,1.2-0.9,1.8c-0.4,0.7-1.1,1.5-1,2.2c0.5,3.8,0,7.3-2.2,10.6c-0.8,1.2-0.5,3.1-1,4.6
	c-1.3,3.9-2.8,7.8-4.1,11.8c-0.3,1.1-0.1,2.4-0.1,3.5c-1.4-0.4-2.4,0.4-2.3,2.7c0.1,2-0.1,3.8-1.4,5.7c-1.8,2.5-3.2,5.4-4.5,8.3
	c-0.9,2.1-3.3,3.8-2.2,6.6c-3,1.3-3.2,4.7-4.5,7.1c-2.2,4-5,7.8-6.6,12.1c-0.6,1.5-1.6,2.9-2.4,4.3c-1.2,2-2.3,4.1-3.6,6.1
	c-0.6,0.9-1.7,1.6-2.4,2.5c-2.8,3.4-5.4,6.9-8.1,10.4c-0.3,0.4-0.8,0.9-0.9,1.4c-0.7,4.1-4.5,5.8-6.9,8.6c-3.7,4.3-8,8.1-11.3,12.7
	c-2.3,3.3-4.9,5.8-8.2,7.8c-1.3,0.8-2.2,2.3-3,3.6c-6.7,5.4-13.1,11.1-20,16.1c-7.4,5.3-15.3,9.8-23.6,15c1.1,0.5,1.9,0.8,2.7,1.2
	c-0.2,0.3-0.4,0.7-0.6,1c-2.2-2.4-4-1.4-6.1-0.1c-1.4,0.9-3.1,1.6-4.7,1.7c-1.9,0.2-2.7,0.8-2.3,2.8c-0.7-0.1-1.3-0.3-1.7-0.1
	c-5.2,2.4-10.3,4.9-15.5,7.2c-1.4,0.6-3.1,0.7-4.5,1.3c-4.1,1.6-8,3.9-12.2,4.8c-4,0.9-7.6,3.2-12,2.7c-1.1-0.1-2.3,1.4-3.6,1.7
	c-5.6,1.4-11.3,2.6-16.9,3.9c-0.6,0.1-1.2,0.6-2,1.1c-1.3-1.8-2.9-1.6-3.9,0.6c-1.6,0.2-2.9,0.6-4.1,0.6c-3.1-0.1-6.2-0.4-9.2-0.4
	c-1.3,0-2.9,0-3.8,0.7c-3.3,2.4-7,1.7-10.6,1.6c-4.9-0.1-9.9-0.3-14.7,0.2c-2,0.2-3.9-0.5-5.8-0.3c-2.4,0.2-4.8,0.3-7.1,0.1
	c-1.1-0.1-2.2-1.2-3.3-1.3c-3.8-0.5-7.6-0.6-11.3-1c-2.3-0.2-4.9-0.1-7-1.1c-2.3-1.1-4-1.3-6.5-0.8c-2,0.4-4.5-0.9-6.6-1.9
	c-1.8-0.9-1.6-1.1-3.5,0c-0.4,0.2-1.4-0.1-1.9-0.5c-3.1-2.3-6.7-2.7-10.5-2.7c-0.3,0-0.6-0.1-0.8-0.2c-1.4-0.7-2.7-1.7-4.1-2.1
	c-4.4-1.3-8.9-2.4-13.4-3.6c-0.7-0.2-1.2-0.6-1.9-0.9c-8-3.7-16.2-7.2-24-11.3c-3.6-1.9-6.9-3.9-10.7-4.7c-0.3-0.7-0.4-1.7-0.9-2
	c-4-2.2-8.1-4.3-12.1-6.5c-0.8-0.4-1.1-1.9-1.8-2.1c-5.2-1.9-8.3-6.6-12.7-9.6c-0.7-0.5-1.5-0.7-1.6-0.7c-1.8-1.7-3.1-3.2-4.6-4.4
	c-2.1-1.7-4.3-3.1-6.4-4.7c-6-4.6-10.8-10.4-16.2-15.6c-0.9-0.9-2.2-1.3-3.2-2.2c-0.7-0.7-0.9-1.8-1.6-2.6c-2.4-2.8-6.1-4.5-6.5-8.7
	c-0.1-0.5-0.8-1.1-1.4-1.4c-1.7-1-3.5-1.9-5.2-3c-0.5-0.3-0.9-1.2-0.8-1.7c0.6-2.5-2.8-6.9-5-6.9c-0.5-2.1-0.8-5.7-1.7-5.9
	c-2.7-0.5-1.4-6.3-6-3.5c0.1-1.1,0.1-1.9,0.1-2.6c0-0.2,0-0.4,0-0.6c-0.7-1.7-1.3-3.5-2.2-5.1c-1.4-2.8-3.1-5.4-4.6-8.2
	c-1.1-2.1-2.3-4.2-3.4-6.2c-0.9-1.8-1.7-3.6-2.7-5.3c-0.6-1-1.4-1.9-2.3-2.9c0,0,0.5-0.2,1-0.4c-1.4-2.9-2.4-6.1-4.4-8.7
	c-1.3-1.6-1.2-2.9-1.4-4.6c-0.1-1.6-1.4-3.1-2.2-4.6c-0.6,0.6-1.2,1.4-1.8,2.1c2.2-3.7,0-7-1-10.2c-1.1-3.4-2.7-6.7-4.1-10.2
	c0.1-0.4,0.5-1.2,0.4-1.8c-1.1-4.5-2.4-8.9-3.4-13.3c-0.9-3.6-1.7-7.2-2.2-10.8c-0.4-2.7,0.3-5.8-0.6-8.2
	c-2.8-7.3-1.4-14.8-1.6-22.3c-0.2-7.3,0-14.7,0-22c0-3.2-0.1-6.4,0-9.5c0.1-4.5-0.3-9,1.7-13.4c0.9-2,0.7-4.7,0.6-7.1
	c-0.1-2.2,0.1-4,1.6-5.9c0.9-1.1,0.8-3.1,0.7-4.7c-0.2-2.8,0.6-5.1,2.2-7.5c0.8-1.2,0.5-3.2,0.7-4.8c0.1-1,0.1-2,0.4-2.9
	c0.6-2.1,1.2-4.3,2-6.3c1.1-2.7,1.6-5.5,1.9-8.5c0.2-2.2,2.4-4.2,3.6-6.3c0.4-0.6,0.5-1.4,0.7-2.1c0.9-2.1,1.8-4.1,2.6-6.2
	c1.1-3.2,2.1-6.5,3.3-9.8c0.3-0.8,1.1-1.4,1.6-2.1c0.8-1,2.2-2.1,2.2-3.2c-0.1-3.1,2.3-4.7,3.4-7c1.7-3.5,3.3-7.1,5.3-10.3
	c1.5-2.4,3.8-4.4,5.4-6.7c1.1-1.5,1.6-3.5,2.6-5.1c0.9-1.4,2.1-2.6,3.2-3.9c0.1-0.1,0.4-0.2,0.5-0.3c2.5-2.5,2.3-6.5,6.2-8.7
	c3.1-1.7,4.6-6.2,7.1-9.3c1.9-2.3,4.1-4.3,6.2-6.5c3.2-3.2,6.4-6.5,9.6-9.7c0.2-0.2-0.2-1,0.2-0.9c2.3-1.9,4.7-3.8,7.5-6
	c-1.2-0.1-1.9-0.2-2.5-0.3c0-0.1,0-0.3,0-0.4c0.9,0,1.9,0,2.7,0c1.2-1.3,2.3-2.5,3.9-4.1c1.6-0.1,4.1,0.3,4.3-3.2
	c0-0.1,0.5-0.1,0.7-0.3c1.1-0.6,2.4-1.1,3.4-1.9c1.8-1.5,3.2-3.5,5.2-4.8c5-3.3,10.2-6.3,15.2-9.5c3.5-2.2,6.7-4.8,10.3-6.7
	c5.8-3.1,11.8-5.9,17.8-8.7c3.1-1.5,6.2-2.8,9.5-4.3c0-0.1-0.3-0.6-0.7-1.4c3.3,1.6,4.2,1.3,7.1-2c0.4-0.4,1.3-0.3,2-0.5
	c2.2-0.6,4.4-1.1,6.6-1.8c1.2-0.3,2.7-0.5,3.6-1.2c2-1.6,4.3-1.3,6.5-1.7c2.6-0.6,5.1-2,7.7-2.7c1.5-0.4,3.2-0.2,4.8-0.2
	c0.8,0,2.1,0.3,2.5-0.1c2.4-3,6.3-3,8.9-2.6c3.6,0.5,5.6-2.4,8.6-2.2s6,0.5,9,0.4c1.3,0,2.5-1,3.7-1.6c0.3-0.2,0.8-0.5,1-0.4
	c3.6,1.4,7.2-0.1,10.7-0.4c1.9-0.1,3.8-0.7,5.8-1.1c0.2,0,0.5-0.2,0.5-0.2c1.9,3.2,5-0.4,7.2,2.1c0-1.5,0-2.2,0-2.9
	c2.9,3,3.2,3,4.5,0.4c1.3,2.5,4.4,3.1,7,1.9c1.3-0.6,3.3,0,4.9,0.3c1.2,0.2,2.4,0.9,3.6,1.3c0-0.8,0-1.4,0-2.3
	c0.4,0.2,0.8,0.4,0.8,0.5c-0.1,2.3,1.3,2.5,3.2,2.5c3.9-0.1,7.8-1,11.7,0.5c0.4,0.2,1.2-0.6,1.8-0.9c0.6,0.8,1.5,1.8,2.5,3
	c0.7-1.2,1.1-2,1.8-3.1c0.1,1.3,0.1,2,0.2,2.6c1-0.5,1.9-0.9,3.1-1.4c-0.2,0.5-0.4,0.9-0.4,0.9c2.2,0.8,4.3,1.9,6.5,2.4
	c2.6,0.5,5.3,0.5,8,0.7c0.4,0,0.7,0,1.1,0c-0.1,0.3-0.3,0.7-0.2,0.8c0.9,0.6,1.8,1.1,2.8,1.7c0.3-1.2,0.4-2.2,0.6-3.1
	c-0.3,2.2,0.8,2.7,2.8,3.1c2.6,0.5,5.1,1.5,7.6,2.5c2.7,1,5.3,2.4,8,3.4c1.7,0.6,3.5,0.7,5.2,1.3c3.1,1.3,6,2.8,9.1,4.2
	c4.6,2,9.2,3.9,13.8,6c1.9,0.9,3.6,2.4,5.4,3.5c0.4,0.2,1.1-0.1,1.6,0c0.6,0.1,1.4,0.1,1.6,0.4c1.7,2.8,4,4.7,7.3,5
	c0.5,0,0.9,0.6,1.4,0.9c2.4,1.5,4.8,3,7.2,4.6c0.9,0.6,1.7,1.5,2.6,2.2c3.2,2.5,6.4,4.9,9.7,7.3c0.1-0.2,0.3-0.7,0.3-0.8
	c0.7,0.8,1.3,1.8,2.1,2.4c3.9,3,7.7,6,11,9.8c3.1,3.6,7.8,5.8,11.6,8.8c1.4,1.1,2.2,2.8,3.4,4.1c3.1,3.5,5.2,7.8,9.3,10.7
	c3.5,2.4,5.8,6.4,8.5,9.8c2.7,3.3,5.3,6.7,7.9,10.2c0.7,0.9,0.6,2.5,1.4,3.2c4.6,4.5,6.4,10.8,10,15.9c2.5,3.6,4,7.8,6.1,11.8
	c1.7,3.3,3.8,6.4,5.3,9.8c0.6,1.4,1.6,3,1.2,4.9c-0.1,0.8,0.7,2,1.4,2.7c3.1,3,2.9,7.3,4.4,10.9c1.1,2.5,1.8,5.2,2.7,7.7
	c0.1,0.4,0.5,0.7,0.8,1c0.8,0.9,1.7,1.7,2.5,2.5c-0.4,0.1-0.8,0.2-1.2,0.3c-0.1,0.6-0.5,1.3-0.4,1.8c0.5,2,1.3,3.9,1.9,5.8
	c0.4,1.5,0.7,3,1,4.5c0.5,2.1,0.9,4.2,1.4,6.2c0,0.1,0.9,0,1.3,0c-0.4,5-0.3,10,1.9,14.8c0.5,1.1,0.6,2.5,0.6,3.7
	c0.1,5.1-0.6,10.3,2,15.1c0.8,1.6-0.3,4.4,3.1,4.6C505,241,504.2,241.3,502.7,241.8z"/>
<path fill="#6E6E6E" d="M201.5,264.7c-4,0-8.5,0.1-13,0c-3.4-0.1-5.3-2.4-5.7-5.8c-0.6-5.2,0.9-10.1,2.9-14.6s3.2-9.4,5.2-13.8
	c1.4-3,1.7-6.3,3.5-9.4c1.3-2.2,2.8-5.1,3.3-8.1c0.7-4.4,3.8-6.7,7.6-5.7c1.8,0.5,3.3,2.3,3.4,3.1c0.5,2.6,2.2,4.5,3.3,6.7
	c1.7,3.2,2.2,6.7,3.7,9.9c1.3,2.9,2.6,6,3.7,9.1c1.2,3.3,2.1,6.8,3.8,10.1c2.2,4.4,4.5,9.4,2.8,14.6c-0.7,2.1-2.5,3.9-5.2,4
	C214.5,265.1,208.3,265.4,201.5,264.7z"/>
<path fill="#6E6E6E" d="M252.9,24.9c3.9,0,7.9-0.1,11.8,0c2.3,0,4.8-0.6,6.7,1.7c0.3,0.4,1.5,0.3,2.2,0.3c4,0.1,8.1,0.1,12.1,0.3
	c2,0.1,4.2-0.4,5.8,1.7c0.4,0.5,1.6,0.4,2.5,0.5c3.4,0.3,7-0.5,9.9,2.1c0.1,0.1,0.4,0.1,0.6,0.1c5-0.7,9.4,1.7,13.7,3.3
	c3.7,1.4,7.9,1.1,11.1,3.8c0.5,0.4,1.4,0.4,2.2,0.5c1.3,0.2,2.7,0.1,3.5,1.6c0.2,0.3,0.8,0.6,1.2,0.6c4.2,0.1,7.3,3.2,10.9,4.3
	c4.7,1.4,8.4,4.5,12.9,6.1c2,0.7,4.4,2.7,6.2,3.3c3.9,1.3,6,5.3,10.1,5.7c1.4,0.2,1.5,1.6,2.5,2.2c4.1,2.4,7.8,5.6,12,7.9
	c2.9,1.6,5.4,4.3,7.8,6.7c2.6,2.6,5.9,4.1,8.5,6.8c2.7,2.8,5.7,5.4,8.2,8.3c2.7,3.1,5.9,5.6,8.7,8.6c2.4,2.6,4,5.9,6.6,8.3
	c4.5,4.2,7.6,9.6,11.1,14.5c2.1,3,4.9,5.7,5.9,9.4c0.5,1.6,2,2.4,2.7,3.9c1.3,2.9,2.9,5.8,4.6,8.4c2.3,3.7,3.7,7.9,6,11.6
	c1.3,2.2,2.3,5.1,3.6,7.3c1.8,3,1.1,7,4,9.5c0.4,0.4,0.4,1.3,0.5,1.9c0.1,1.6,0,3.3,1.7,4.3c0.2,0.1,0.4,0.5,0.4,0.7
	c-0.5,4,1.7,7.5,2.9,10.9c1.6,4.4,1.4,9.4,3.9,13.5c0.3,0.6,0.5,1.3,0.6,1.9c0.6,4.2,0.4,8.4,1.9,12.6c1.5,4.4,0.6,9.3,0.8,14
	c0.1,1.4-0.1,2.9,1.4,3.9c0.9,0.6,0.6,1.8,0.6,2.7c0,9.7,0,19.4,0,29.1c0,0.6,0.2,1.4-0.1,1.7c-3.2,3.6-1.5,8-2,12.1
	c-0.4,3.8,0.2,7.7-2.1,11.1c0,0.1-0.1,0.2-0.1,0.3c0.6,5.4-1.7,10.2-2.7,15.3c-0.9,4.7-2.4,9.2-4.2,13.7c-0.3,0.8-0.5,1.7-0.6,2.5
	c-0.2,1.5-0.1,3.1-1.8,3.9c-0.2,0.1-0.4,0.5-0.4,0.7c0.7,3.9-2.6,6.8-2.9,10.4c-0.2,2.2-1.6,4.2-2.7,5.9c-1.5,2.4-1.9,5.3-3.7,7.6
	c-1.2,1.5-1.7,3.7-2.7,5.5c-3.1,5.2-5.3,10.8-8.9,15.8c-2.2,3-5.2,6-6,10.1c-0.2,1.3-1.6,1.2-2.2,2.2c-3.3,5-7.1,9.5-10.8,14.1
	c-2.7,3.3-5.4,6.8-8.3,10c-3.5,3.7-7.4,7-10.8,10.8c-2.1,2.4-4.9,4-6.9,6.6c-1.1,1.3-3,1.9-4.5,3c-2.5,1.8-4.2,4.5-7,5.8
	c-3.8,1.8-6.1,5.7-10.4,6.7c-1.1,0.3-1.2,1.5-2,2c-5.7,3.4-11,7.2-17,10.2c-3.9,1.9-8,3.6-11.6,6.2c-1.6,1.1-3.6,1.5-5.4,2.3
	c-2.9,1.3-5.8,2.7-8.8,3.8c-3.3,1.3-7.4,0.9-10.1,3.8c-0.1,0.1-0.4,0.3-0.5,0.2c-3.9-0.7-7.2,1.7-10.3,3c-4.5,1.9-9.8,0.7-13.8,3.8
	c-0.3,0.3-0.9,0.2-1.4,0.3c-4,0.5-8.1,0.3-12,2.1c-2.2,1-5.1,1-7.7,0.7c-6.7-0.7-12.9,2.1-19.5,1.9c-6.6-0.2-13.4,0.7-19.9-0.3
	c-8-1.3-16.3-0.6-24.1-2.3c-4.4-1-9.2-0.7-13-2.5c-4.3-2-9.2-0.7-13-3.6c-0.7-0.6-2-0.4-3.1-0.6c-1.2-0.2-2.6,0-3.2-1.4
	c-0.1-0.2-0.4-0.5-0.6-0.5c-3.1-0.3-5.9-1.4-8.8-2.4c-4.2-1.5-8.3-3-12.5-4.6s-8.2-3.5-12-5.6c-2.5-1.4-5.3-2.3-7.8-3.9
	c-2.9-1.9-6.4-3-9.2-5.2c-3.1-2.3-6.6-4.1-9.6-6.6c-2.2-1.8-4.9-3.7-7.5-5c-3.2-1.5-5.5-3.9-8-6.1c-3.6-3.1-7.8-5.4-11.2-8.9
	c-3.5-3.7-7-7.4-10.8-10.8c-3.1-2.8-5.9-5.9-8.6-9c-2.1-2.4-3.6-5.4-6-7.7c-3.2-2.9-4.7-7.2-7.5-10.3c-4.4-4.8-6.9-10.8-10.7-16
	c-1.5-2.1-3.6-4.5-3.7-7.7c-0.1-1.4-1.7-2.7-2.6-4.2c-2.3-3.9-3.5-8.4-6.3-12.2c-1.1-1.5-1.9-3.7-2.1-5.4c-0.4-3.4-1.9-6.7-3.5-9
	c-2.4-3.5-0.7-8.1-3.8-11c-0.1-0.1-0.1-0.2-0.1-0.3c0.4-3.9-2.3-7-2.7-10.7c-0.6-5.7-2.4-11.3-3.4-16.9c-0.9-5.1-1.4-10.1-1.8-15.2
	c-0.2-2.1,0.4-4.4-1.7-6.1c-0.5-0.4-0.4-1.6-0.4-2.5c0-10.5,0-21,0-31.4c0-1.3-0.1-2.7,1.3-3.6c1-0.7,0.7-1.9,0.7-3
	c0.2-4.3-0.4-8.8,0.7-12.9c1.2-4.4,0.8-9.3,2.5-13.3c1.8-4.2,0.7-9,3.7-12.7c0.5-0.6,0.4-1.7,0.6-2.5c0.4-2.3-0.5-5.1,2.1-6.7
	c0.1-0.1,0.1-0.4,0.1-0.5c0.2-4.5,2.4-8.2,4.4-12.1c1.1-2.3,1.7-4.9,2.5-7.4c1-3.1,2.8-5.7,4.3-8.4c0.9-1.7,1.9-3.6,2.5-5.3
	c0.9-2.7,2.7-4.8,3.7-7.5c1.1-3.1,3.5-5.8,5.3-8.7c1.5-2.5,3.9-4.6,4.4-7.6c0.2-1.4,1.4-1.8,2.1-2.5c2.7-2.9,4.5-6.6,6.9-9.7
	c3-3.8,6.3-7.4,9.3-11.2c5.4-6.8,12-12.3,17.9-18.6c3-3.2,6.5-6.2,10.5-8.3c1.5-0.8,2.4-2.6,3.7-3.7c4.2-3.4,9-6,13.1-9.6
	c2.6-2.3,6.3-3.5,9.3-5.5c4.6-3,9.6-5.4,14.6-7.8c3.8-1.9,7.5-4.2,11.3-5.8c2.7-1.2,5.3-3.2,8.8-3.4c2.6-0.1,5.1-2,7.7-2.9
	c1.5-0.6,2.8-1.4,4.4-1.5c2.2-0.1,4-1.7,5.8-1.9c4.6-0.6,8.6-3.8,13.5-3.3c0.8,0.1,1.8,0.1,2.5-0.5c1.5-1.5,3.5-1.4,5.4-1.6
	c2.6-0.3,5.4,0.7,7.5-1.9c0.3-0.4,1.5-0.3,2.2-0.3c3.9-0.1,7.9-0.1,11.8-0.3c2.3-0.1,4.8,0.6,6.7-1.7c0.4-0.5,1.6-0.3,2.5-0.3
	C243.1,24.9,248,24.9,252.9,24.9L252.9,24.9z M205.9,286.7c8.5,1.7,19.6-2.8,30.1,2.2c1.8,0.9,3.5,2.2,4.1,3.5
	c1.4,3.4,3.4,6.6,4.6,10c1.7,4.8,2.9,9.8,5.4,14.4c1.9,3.5,2.7,7.3,4.4,10.9c2.1,4.4,3.3,9.2,3.3,14.3c0,3.1-1.5,5.3-3.8,6.8
	c-4.1,2.7-9.1,3.4-13.7,5c-4.2,1.4-8.6,1.9-10.2,7c-0.5,1.6,0.7,7.2,2.3,7.5c2.8,0.4,5.5,1.3,8.2,2c0.7,0.2,1.7,0,2.2-0.4
	c1.4-1.2,3-1.1,4.6-1.1c13.1-0.1,26.2-0.5,39.2-0.2c13.1,0.3,26.2-1.2,39.2,1.5c4.9,1,10.4,1.2,15.4-1.3c2.2-1.1,4.6-3.4,4.9-5.8
	c0.4-3.2-1.6-5.2-3.5-6.9c-4.6-4.3-11-4.8-16.6-6.6c-3.8-1.3-6.2-3.7-8-6.4c-1.3-2-2.9-4.2-3.7-6.8c-0.5-1.8-1.3-3.9-2.3-5.6
	c-1.9-3.1-3.8-6-4.2-9.7c-0.1-0.7-0.3-1.3-0.6-1.9c-1.8-3.7-4-7.2-4.4-11.4c0-0.4-0.1-0.9-0.3-1.1c-2.9-2.4-2.1-6.2-3.8-9.2
	c-1.5-2.5-3.8-5.5-3-9.1c0-0.2-0.2-0.6-0.3-0.8c-2.2-2.7-3.8-5.7-4.2-9.3c-0.1-0.8-0.6-1.4-0.9-2.1c-1.5-3.2-3.5-6.3-3.9-9.9
	c-0.4-2.9-1.8-5.5-3.2-7.6c-2-3.1-1.6-6.7-3.7-9.7c-1.7-2.5-2.4-5.8-3.3-8.8c-1.3-4-4-7.4-4.5-11.8c-0.1-0.6-0.6-1-0.8-1.5
	c-1-2.9-3.4-5.2-3.6-8.3c-0.2-3.2-2.5-5.3-3.4-8.1c-0.9-2.9-2.8-5.4-3.5-8.3c-0.8-3.3-2.6-6-3.8-9c-1.2-3-1.9-6.1-3.5-9
	c-1.2-2.2-2.2-5-3.3-7.2c-1.6-3.4-2.2-7.1-4.2-10.3c-1.5-2.5-2.2-5.6-3.2-8.4c-1.2-3.5-4-6.4-4.2-10.3c0-0.4-0.2-0.8-0.5-1
	c-2.5-2.1-2.7-5.4-3.7-8.1c-1-2.6-3-4.6-3.7-7.3c-0.2-0.9-1.6-2.2-2.7-2.7c-4.3-2.3-8.9-3.7-13.8-2.6c-2.3,0.5-4.8,1.7-6.3,3.2
	c-2.9,2.8-4.7,6.6-5.5,10.7c-0.1,0.7-0.1,1.4-0.5,1.9c-2.3,3.4-3.9,7-4.3,11.1c-0.1,0.7-0.2,1.4-0.9,1.7c-1.3,0.6-1.4,1.9-1.3,3
	c0.2,3.4-2.2,5.9-3.3,8.8c-1.3,3.4-2.7,7-3.8,10.4s-2.9,6.4-4,9.7c-1.1,3.2-2.5,6.3-3.1,9.5c-0.6,3.3-2.3,5.9-3.4,8.8
	c-1.4,3.5-2.6,7.2-4,10.7c-1.3,3.3-3,6.4-4,9.7c-0.9,3-2.7,5.9-3.1,8.9c-0.5,4-3.5,6.9-3.4,10.9c0,0.2-0.2,0.3-0.3,0.5
	c-1.2,3.5-3.7,6.5-4.1,10.3c-0.1,0.6-0.1,1.3-0.5,1.6c-2.9,2.6-1.9,6.6-3.8,9.7c-1.5,2.5-3.5,5.4-2.9,8.9c0,0.2-0.2,0.5-0.4,0.7
	c-2.2,2.2-2.2,5.5-3.7,8.1c-0.8,1.4-1.3,3.3-1.8,4.9c-1,3.3-2.8,6.5-3.3,9.8c-0.5,3.2-1.9,6.2-3.3,8.4c-1.9,3-0.5,7.2-3.8,9.4
	c-0.3,5.9-4.7,10.4-5.7,16.2c-0.3,1.8-1.2,4.5-2.5,5.7c-3.1,2.9-4.1,7.7-8.6,9.4c-1.5,0.6-3.2,0.6-4.6,1.6
	c-3.3,2.3-7.4,2.7-11.1,3.9c-3.9,1.3-8.3,1.4-8.9,6.8c0,0.2-0.3,0.5-0.5,0.7c-0.9,0.6-1,1-0.1,1.7c1,0.7,0.6,1.9,0.8,2.9
	c0.2,0.7,0,2,0.8,2c2.5,0.2,4.4,2.4,7,2.3c3.5,0,7-1,10.3-1.3c8.6-0.8,17.2-1.3,25.9-0.9c12.4,0.6,24.8,0.7,37.2,0.4
	c1,0,2-0.1,3-0.8c3.5-2.8,2.6-6.4,2.2-10c0-0.4-0.4-0.9-0.8-1.1c-3.4-1.6-6.7-3.7-10.3-4.6c-3.4-0.8-6.8-1-10-2.7
	c-3.1-1.7-7.3-6.6-7.3-10.1c0-0.6-0.1-1.4,0.3-1.7c2.2-1.7,1.6-4.1,2-6.3c0.6-3.5,2.8-6.6,3-10.3c0-0.2,0.4-0.5,0.5-0.7
	c1.3-3.4,2.8-6.7,3.9-10.1c0.5-1.6,0.7-3.1,1.7-4.7c1.1-1.8,2.1-4,2.6-6c0.7-2.6,1-5.1,2.9-7.1c2.6-2.8,5-6,9.6-5.8
	C186.7,286.8,195.2,286.7,205.9,286.7z"/>
<path fill="#FFFFFF" d="M428,230.5c-5.1-5.5-13-5.2-18.9,1c-1.7,1.7-2.4,1.8-2.4,1.8s-0.6-0.1-1.8-1.4c-2.8-3-5.3-6.7-7.2-10.7
	c-1-2.2-1.8-4.6-2.5-6.9c-1.2-3.7-2.4-7.6-4.7-11.2c-0.7-1.1-0.9-1.6-0.9-1.6c0.1-0.1,0.3-0.5,1.1-1.2c0.9-0.8,1.9-1.6,2.8-2.4
	c4.5-3.8,9.6-8.1,11.1-15.3c0.6-3.1,1.3-6.2,2.3-9.2c2.3-7.4,1.1-15-3.3-21.4c-4.8-7-13.1-11.6-21.6-12.1
	c-9.1-0.5-18.9-0.8-31.8-0.8l-13.5,0.1c-5.3,0-10.6,0.7-15.7,1.4l-4.1,0.5c-2,0.2-3.4,1.5-4.6,2.5l-3.3,3.6l3.4,3.5
	c0.8,0.8,1.9,1.9,3.7,2.4c4.2,1.1,8.4,2,12.6,3l4.4,1.6c-0.4,8.2-0.8,18-0.8,28.2c0,5.3-0.2,6.4-3.2,7.3c-2.2,0.7-2.8,2.7-3.3,3.9
	l-1.2,2.9l4,3.2c0.9,0.7,1.9,1.5,2.8,2.3l0.9,0.9c0.4,0.4,1.2,1.2,1.2,0.6c0.3,7.4,0.2,14.8,0.2,22.1v3.5l-18,3.7l-3,1.5l-1.3,7.4
	l3.2,1.2c1,0.4,2,0.9,3.1,1.4c2.7,1.3,5.7,2.8,9.4,2.8l0,0c8.9-0.3,17.9-1.1,26.7-1.8l14.1-1.2v-12.1l-3.3-0.8
	c-0.9-0.2-1.9-0.5-2.7-0.7c-2.3-0.7-4.7-1.3-7.2-1.4c-2.2-0.1-2.2-0.5-2.3-1.7c-0.1-6-0.1-12-0.1-18.2v-2.9h6.7c2.6,0,5.1,0,7.8-0.1
	c1.4,0,1.7,0.1,2.5,1.6c2.5,4.7,5.1,9.3,7.8,13.9c1.9,3.3,3.8,6.6,5.6,9.9c3.7,6.7,8.5,11.4,14.9,14.5c2,1,5.2,1.5,9.7,1.5
	c2.9,0,12.6-0.2,16.3-3.5l1-0.9c1.7-1.3,3.7-3,4.5-5.5C430.1,238.7,430.8,233.6,428,230.5z M379.5,184.1c-6.6,5.9-14,8.8-22.7,8.8
	c-1.4,0-2.9-0.1-4.8-0.6c0.1-10.4,0.3-20.9,0.6-31.3l0.1-3.4c2.8-0.1,5.7-0.4,8.5-0.7c7.8-0.8,16.1-1.2,22.5,0.3
	c0.8,0.2,2.1,1.2,2.3,1.7C389.4,166.4,386.4,177.9,379.5,184.1z"/>
</svg>
