<?xml version="1.0" encoding="utf-8"?>
<!-- Generator: Adobe Illustrator 18.1.1, SVG Export Plug-In . SVG Version: 6.00 Build 0)  -->
<svg version="1.1" id="Layer_1" xmlns="http://www.w3.org/2000/svg" xmlns:xlink="http://www.w3.org/1999/xlink" x="0px" y="0px"
	 viewBox="-10.3 64.6 512 386.6" enable-background="new -10.3 64.6 512 386.6" xml:space="preserve">
<g>
	<g>
		<path fill="#FFFFFF" d="M152.2,321.7c0.7,0,1.4,0.1,2,0.4c0.7,0.2,1.3,0.6,1.7,1c0.5,0.4,0.9,1,1.2,1.6c0.3,0.6,0.4,1.3,0.4,2
			c0,0.8-0.2,1.5-0.4,2.2c-0.3,0.7-0.7,1.3-1.1,1.7c-0.5,0.5-1.1,0.8-1.8,1.1c-0.6,0.3-1.4,0.4-2.1,0.4c-0.8,0-1.5-0.1-2.2-0.4
			c-0.7-0.2-1.2-0.6-1.7-1.1c-0.5-0.5-0.8-1.1-1.1-1.7c-0.3-0.6-0.4-1.4-0.4-2.2c0-0.7,0.2-1.4,0.5-2c0.3-0.6,0.7-1.1,1.2-1.6
			c0.5-0.5,1.1-0.8,1.7-1C150.7,321.9,151.5,321.7,152.2,321.7z M152.2,324.2c-0.4,0-0.7,0.1-1.1,0.2c-0.3,0.1-0.6,0.3-0.9,0.6
			c-0.2,0.2-0.4,0.5-0.5,0.8c-0.1,0.3-0.2,0.6-0.2,0.9c0,0.4,0.1,0.8,0.2,1.2c0.1,0.3,0.4,0.6,0.5,0.9c0.3,0.3,0.6,0.5,0.9,0.6
			c0.3,0.1,0.7,0.2,1.1,0.2s0.7-0.1,1-0.2c0.4-0.2,0.7-0.4,0.9-0.6c0.3-0.2,0.5-0.5,0.6-0.9c0.1-0.4,0.2-0.8,0.2-1.2
			c0-0.3-0.1-0.7-0.2-0.9c-0.2-0.3-0.4-0.6-0.6-0.8c-0.2-0.3-0.5-0.4-0.9-0.6C152.9,324.3,152.5,324.2,152.2,324.2z"/>
		<path fill="#FFFFFF" d="M186.3,331.8h-3.2l-2.4-3.8l0,0v3.8h-2.6V322h3.8c0.5,0,0.9,0.1,1.3,0.2c0.4,0.1,0.8,0.3,1.1,0.5
			c0.3,0.3,0.5,0.6,0.7,0.9c0.1,0.4,0.3,0.8,0.3,1.4c0,0.3-0.1,0.6-0.1,0.9c-0.1,0.3-0.3,0.6-0.4,0.8c-0.2,0.3-0.4,0.5-0.7,0.6
			c-0.3,0.2-0.5,0.3-0.9,0.3L186.3,331.8z M180.7,326.4h0.2c0.2,0,0.4,0,0.7,0c0.2,0,0.4-0.1,0.5-0.1c0.2-0.1,0.3-0.2,0.5-0.4
			c0.1-0.2,0.2-0.4,0.2-0.6c0-0.3-0.1-0.5-0.2-0.7c-0.1-0.2-0.2-0.3-0.5-0.4c-0.1-0.1-0.3-0.1-0.5-0.2c-0.3,0-0.4,0-0.7,0h-0.2
			V326.4z"/>
		<path fill="#FFFFFF" d="M209,331.8h-2.6V322h2.6V331.8z"/>
		<path fill="#FFFFFF" d="M239.8,326.4c0,0.4,0,0.7-0.1,1c0,0.3,0,0.7-0.1,1c-0.1,0.3-0.2,0.6-0.4,0.9c-0.1,0.3-0.3,0.6-0.5,0.9
			c-0.4,0.7-1,1.1-1.7,1.5c-0.7,0.3-1.4,0.4-2.2,0.4c-0.8,0-1.5-0.1-2.2-0.4c-0.6-0.2-1.2-0.6-1.6-1c-0.5-0.5-0.8-1-1.1-1.6
			c-0.3-0.7-0.4-1.3-0.4-2.1c0-0.8,0.2-1.5,0.4-2.2c0.3-0.6,0.6-1.2,1.1-1.7c0.4-0.4,1-0.8,1.7-1c0.7-0.3,1.3-0.4,2.1-0.4
			c1,0,1.9,0.2,2.7,0.6c0.7,0.5,1.3,1.2,1.7,2.1l-2.4,1c-0.2-0.5-0.4-0.8-0.8-1.1c-0.3-0.3-0.8-0.4-1.2-0.4c-0.5,0-0.8,0.1-1.1,0.3
			c-0.4,0.2-0.6,0.4-0.8,0.7c-0.2,0.3-0.4,0.6-0.5,1c-0.1,0.4-0.1,0.7-0.1,1.1c0,0.4,0,0.7,0.2,1.1c0.1,0.4,0.2,0.7,0.5,1
			c0.2,0.3,0.5,0.5,0.8,0.7c0.3,0.2,0.7,0.2,1.1,0.2c0.5,0,1-0.1,1.4-0.4c0.4-0.3,0.5-0.7,0.6-1.3h-2v-2H239.8z"/>
		<path fill="#FFFFFF" d="M262.9,331.8h-2.6V322h2.6V331.8z"/>
		<path fill="#FFFFFF" d="M284,322h2.5l4.7,5.9h0V322h2.5v9.8h-2.5l-4.7-6l0,0v6H284V322z"/>
		<path fill="#FFFFFF" d="M317.3,330.1l-0.7,1.7h-2.7l3.8-9.8h2.8l3.7,9.8h-2.7l-0.6-1.7H317.3z M319.1,325.1L319.1,325.1l-1.1,3.1
			h2.1L319.1,325.1z"/>
		<path fill="#FFFFFF" d="M346.9,329.7h3v2.1h-5.6V322h2.6V329.7z"/>
	</g>
	<path fill="#FFFFFF" d="M171.6,284.4c-0.2,0-0.1-0.3-0.4-0.3c0-0.2,0.2-0.1,0.2,0C172,283.8,171.6,283.9,171.6,284.4z"/>
	<path fill="#FFFFFF" d="M174.7,288.5c0-0.3-0.6-0.2-0.4-0.6c0.4,0.2,0.5,0.6,0.9,0.8C175,288.9,174.6,288.7,174.7,288.5z"/>
	<g>
		<path fill="#FFFFFF" d="M77.6,315.7c-1.2,0-2.3-0.8-2.6-2c-0.4-1.4,0.5-2.9,1.9-3.3c3.6-1,7.3-1.9,10.9-2.8
			c10.3-2.6,20.9-5.3,30.7-9.9c0.6-0.3,1.2-0.7,1.8-1.1l1.1-0.8c1.2-0.8,2.9-0.5,3.7,0.8c0.8,1.2,0.5,2.9-0.8,3.7l-0.9,0.7
			c-0.8,0.6-1.7,1.2-2.6,1.7c-10.2,4.8-21.1,7.6-31.7,10.2c-3.6,0.9-7.2,1.8-10.8,2.8C78.1,315.6,77.9,315.7,77.6,315.7z"/>
	</g>
	<g>
		<path fill="#FFFFFF" d="M195.7,436.9c-0.3,0-0.7-0.1-1-0.2c-1.4-0.5-2.1-2.1-1.5-3.5c5-13,8.8-26.6,12.6-39.8
			c2.1-7.3,4.2-14.7,6.4-22c0.4-1.4,2-2.2,3.4-1.8c1.4,0.4,2.2,2,1.8,3.4c-2.3,7.2-4.3,14.5-6.4,21.8c-3.8,13.3-7.6,27-12.7,40.2
			C197.8,436.2,196.8,436.9,195.7,436.9z"/>
	</g>
	<g>
		<path fill="#FFFFFF" d="M336.9,421.7c-1,0-2-0.6-2.5-1.6c-2.7-6-5.1-12.1-7.6-18.2c-4.3-10.7-8.9-21.7-14.3-32.1
			c-0.7-1.3-0.2-3,1.1-3.6c1.3-0.7,3-0.2,3.6,1.1c5.6,10.6,10.1,21.8,14.6,32.6c2.4,6,4.9,12.1,7.5,18c0.6,1.4,0,3-1.4,3.6
			C337.7,421.6,337.3,421.7,336.9,421.7z"/>
	</g>
	<g>
		<path fill="#FFFFFF" d="M423.4,314.2c-0.7,0-1.4-0.3-1.9-0.8c-2.3-2.3-5.4-2.9-9-3.6c-1.7-0.3-3.4-0.7-5.1-1.2
			c-6.3-2-12.6-3.9-18.9-5.8l-7.2-2.2c-1.4-0.4-2.2-1.9-1.8-3.4c0.4-1.4,1.9-2.2,3.4-1.8l7.2,2.1c6.4,1.9,12.7,3.8,19,5.8
			c1.4,0.5,3,0.8,4.4,1.1c3.9,0.8,8.2,1.6,11.7,5.1c1.1,1,1.1,2.8,0,3.8C424.8,313.9,424.1,314.2,423.4,314.2z"/>
	</g>
	<g>
		<path fill="#FFFFFF" d="M292.5,451.2c-1.3,0-2.4-0.9-2.6-2.2l-0.6-3c-2.7-13.7-7.6-39.3-6.9-51.5c0.1-1.5,1.3-2.8,2.8-2.5
			c1.5,0.1,2.6,1.4,2.6,2.8c-0.7,11.6,4.2,36.7,6.8,50.2l0.6,3c0.3,1.5-0.7,2.9-2.1,3.2C292.9,451.2,292.7,451.2,292.5,451.2z"/>
	</g>
	<g>
		<path fill="#FFFFFF" d="M250.6,440.2c0,0-0.1,0-0.1,0c-1.5-0.1-2.6-1.3-2.5-2.8c0.5-9.5,0.9-40,0.8-49.1c0-4.7,0-9.6-1.7-13.9
			c-0.6-1.4,0.1-3,1.5-3.5c1.4-0.6,3,0.1,3.5,1.5c2.2,5.3,2.2,11,2.1,16c0,9.1-0.3,39.8-0.8,49.4C253.2,439.1,252,440.2,250.6,440.2
			z"/>
	</g>
	<g>
		<path fill="#FFFFFF" d="M102.4,372.9c-0.9,0-1.7-0.4-2.2-1.2c-0.8-1.2-0.5-2.9,0.7-3.7l26.2-17.5c1.2-0.8,2.9-0.5,3.7,0.7
			c0.8,1.2,0.5,2.9-0.7,3.7l-26.2,17.5C103.4,372.8,102.9,372.9,102.4,372.9z"/>
	</g>
	<g>
		<path fill="#FFFFFF" d="M417.5,350.4c-0.6,0-1.2-0.2-1.7-0.6c-4.2-3.3-9-5.7-14.1-8.2c-3.7-1.8-7.5-3.7-11.1-6
			c-1.2-0.8-1.6-2.5-0.8-3.7c0.8-1.2,2.5-1.6,3.7-0.8c3.3,2.1,6.9,3.8,10.6,5.7c5.1,2.5,10.4,5.1,15.1,8.8c1.2,0.9,1.4,2.6,0.5,3.8
			C419.1,350,418.3,350.4,417.5,350.4z"/>
	</g>
	<g>
		<path fill="#FFFFFF" d="M77.7,343.4c-0.3,0-0.6,0-1,0c-1.5-0.1-2.6-1.3-2.6-2.8c0.1-1.4,1.3-2.6,2.7-2.6c0.2,0,0.5,0,0.8,0
			c4.1,0,7.8-1.8,11.6-3.8c3.4-1.7,6.9-3.5,11-4.1c1.6-0.2,2.9,0.8,3.1,2.2c0.2,1.5-0.8,2.9-2.2,3.1c-3.2,0.5-6.2,2-9.4,3.6
			C87.5,341.2,83.1,343.4,77.7,343.4z"/>
	</g>
	<g>
		<path fill="#FFFFFF" d="M376.9,383.9c-0.5,0-0.9-0.1-1.4-0.4c-4.8-2.9-8.4-6.8-11.9-10.6c-3.4-3.7-6.6-7.2-10.8-9.7
			c-1.3-0.8-1.7-2.4-0.9-3.7c0.8-1.3,2.4-1.7,3.7-0.9c4.9,2.9,8.5,6.9,12,10.7c3.4,3.7,6.5,7.1,10.7,9.6c1.3,0.8,1.7,2.4,0.9,3.7
			C378.7,383.4,377.8,383.9,376.9,383.9z"/>
	</g>
	<g>
		<path fill="#FFFFFF" d="M395.1,367.4c-0.9,0-1.8-0.5-2.3-1.3c-2.2-3.9-6-6.1-10-8.4c-3-1.7-6-3.5-8.6-6.1c-1.1-1-1.1-2.8,0-3.8
			c1.1-1.1,2.8-1.1,3.8,0c2.1,2.1,4.8,3.6,7.6,5.3c4.4,2.6,9,5.3,11.9,10.4c0.7,1.3,0.3,2.9-1,3.7
			C396.1,367.2,395.6,367.4,395.1,367.4z"/>
	</g>
	<g>
		<path fill="#FFFFFF" d="M135,376.5c-1,0-1.9-0.5-2.4-1.5c-0.7-1.3-0.2-3,1.1-3.6c4.8-2.5,8.3-6.5,11.9-10.8
			c1.6-1.8,3.2-3.7,4.8-5.4c1.1-1.1,2.8-1.1,3.8,0c1.1,1,1.1,2.8,0,3.8c-1.6,1.6-3.1,3.4-4.6,5.1c-3.8,4.5-7.8,9.1-13.5,12
			C135.8,376.4,135.4,376.5,135,376.5z"/>
	</g>
	<g>
		<path fill="#FFFFFF" d="M283.3,387.8c-1.4,0-2.6-1.1-2.7-2.5l-0.3-3.4c-0.3-3.1-0.5-6.3-0.5-9.4c0-0.6-0.1-0.7-0.1-0.7
			c-1.5-0.1-2.7-1.3-2.5-2.8c0.1-1.5,1.5-2.4,2.8-2.3c2.4,0.2,5.1,1.4,5.1,5.9c0,3,0.3,6,0.5,9l0.3,3.5c0.1,1.5-1,2.8-2.5,2.9
			C283.5,387.8,283.4,387.8,283.3,387.8z"/>
	</g>
	<g>
		<path fill="#FFFFFF" d="M178.4,386.7c-0.9,0-1.7-0.4-2.2-1.2c-0.8-1.2-0.5-2.9,0.7-3.7c2.5-1.6,3.6-4.3,4.9-7.4
			c1.1-2.5,2.1-5,4.1-7.2c1-1.1,2.7-1.3,3.8-0.3c1.1,1,1.2,2.7,0.3,3.8c-1.4,1.6-2.3,3.7-3.2,5.8c-1.4,3.4-3.1,7.2-6.9,9.7
			C179.4,386.5,178.9,386.7,178.4,386.7z"/>
	</g>
	<g>
		<path fill="#FFFFFF" d="M164.8,410.1c-0.4,0-0.8-0.1-1.2-0.3c-1.3-0.6-1.9-2.2-1.3-3.6l7.1-15.1c0.6-1.4,2.2-1.9,3.6-1.3
			c1.3,0.6,1.9,2.2,1.3,3.6l-7.1,15.1C166.8,409.6,165.8,410.1,164.8,410.1z"/>
	</g>
	<g>
		<g>
			<path fill="#FFFFFF" d="M325.4,157.6c-1.3,0-2.4-0.9-2.7-2.2c-0.3-1.5,0.7-2.9,2.2-3.1c4.4-0.8,8.5-2.6,12.9-4.6
				c4-1.8,8.2-3.6,12.7-4.7c1.4-0.3,2.9,0.6,3.2,2.1c0.3,1.5-0.6,2.9-2,3.2c-4,0.9-7.7,2.5-11.7,4.3c-4.4,2-9,4-14.1,4.9
				C325.7,157.6,325.5,157.6,325.4,157.6z"/>
		</g>
		<g>
			<path fill="#FFFFFF" d="M316.1,140.4c-0.8,0-1.6-0.3-2.1-1c-0.9-1.2-0.8-2.9,0.4-3.8l18.9-15.3c1.1-0.9,2.8-0.8,3.8,0.4
				c0.9,1.2,0.8,2.9-0.4,3.8l-18.9,15.3C317.3,140.2,316.7,140.4,316.1,140.4z"/>
		</g>
		<g>
			<path fill="#FFFFFF" d="M327.7,176.2c-1.2,0-2.2-0.8-2.6-1.9c-0.4-1.4,0.4-2.9,1.8-3.4l57.3-17c1.5-0.4,2.9,0.4,3.4,1.8
				c0.4,1.4-0.4,2.9-1.8,3.4l-57.3,17C328.2,176.2,327.9,176.2,327.7,176.2z"/>
		</g>
		<g>
			<path fill="#FFFFFF" d="M271.1,109.4c-0.3,0-0.6-0.1-0.9-0.2c-1.4-0.5-2.1-2.1-1.6-3.5c5-13.4,11.4-26.5,19.1-38.9
				c0.8-1.3,2.5-1.7,3.7-0.9c1.3,0.8,1.6,2.4,0.9,3.7c-7.5,12.1-13.8,24.9-18.6,38C273.3,108.7,272.2,109.4,271.1,109.4z"/>
		</g>
		<g>
			<path fill="#FFFFFF" d="M154,181.5c-0.2,0-0.5,0-0.7-0.1c-5.3-1.4-10.6-3-15.9-4.6c-9.3-2.9-19-5.8-28.7-7.4
				c-1.5-0.2-2.5-1.6-2.2-3.1c0.2-1.5,1.5-2.4,3.1-2.2c10.1,1.6,20,4.6,29.5,7.5c5.2,1.6,10.4,3.2,15.7,4.6c1.4,0.4,2.3,1.8,1.9,3.3
				C156.3,180.7,155.2,181.5,154,181.5z"/>
		</g>
		<g>
			<path fill="#FFFFFF" d="M171.4,140.6c-0.6,0-1.2-0.2-1.7-0.6l-21.1-17.3c-1.1-0.9-1.3-2.7-0.4-3.8c0.9-1.2,2.6-1.3,3.8-0.4
				l21.1,17.3c1.2,0.9,1.3,2.6,0.4,3.8C172.9,140.3,172.1,140.6,171.4,140.6z"/>
		</g>
		<g>
			<path fill="#FFFFFF" d="M190.6,128.3c-0.8,0-1.5-0.3-2.1-1l-24.1-28.5c-1-1.1-0.8-2.8,0.3-3.8c1.1-1,2.8-0.8,3.8,0.3l24.1,28.5
				c1,1.1,0.8,2.8-0.3,3.8C191.9,128.1,191.3,128.3,190.6,128.3z"/>
		</g>
		<g>
			<path fill="#FFFFFF" d="M342.2,120.4c-0.8,0-1.6-0.4-2.2-1.1c-0.9-1.2-0.6-2.9,0.5-3.8l9-6.7c1.2-0.9,2.9-0.6,3.8,0.6
				c0.9,1.2,0.7,2.9-0.5,3.8l-9,6.7C343.4,120.3,342.8,120.4,342.2,120.4z"/>
		</g>
		<g>
			<path fill="#FFFFFF" d="M296.7,121c-0.9,0-1.8-0.5-2.3-1.3c-0.8-1.3-0.3-2.9,0.9-3.7c3.8-2.3,6.8-5.6,9.9-9.2
				c3.8-4.3,7.7-8.8,13.5-11.5c1.3-0.6,3,0,3.6,1.3c0.6,1.3,0,3-1.3,3.6c-4.7,2.2-8.1,6.1-11.7,10.1c-3.3,3.7-6.7,7.6-11.3,10.3
				C297.6,120.9,297.2,121,296.7,121z"/>
		</g>
		<g>
			<path fill="#FFFFFF" d="M243.5,102.3c-1.4,0-2.6-1.1-2.7-2.6l-1.3-24.2c-0.1-1.5,1.1-2.8,2.6-2.8c1.5-0.1,2.8,1.1,2.8,2.6
				l1.3,24.2c0.1,1.5-1.1,2.8-2.6,2.8C243.6,102.3,243.6,102.3,243.5,102.3z"/>
		</g>
		<g>
			<path fill="#FFFFFF" d="M165.7,162.5c-0.4,0-0.8-0.1-1.2-0.3l-20.8-9.9c-1.3-0.6-1.9-2.2-1.3-3.6c0.6-1.4,2.2-1.9,3.6-1.3
				l20.8,9.9c1.3,0.6,1.9,2.3,1.3,3.6C167.7,161.9,166.7,162.5,165.7,162.5z"/>
		</g>
		<g>
			<path fill="#FFFFFF" d="M211.7,115.2c-1.2,0-2.2-0.8-2.6-1.9c-0.9-3-1.7-6-2.5-9c-3.3-12-6.8-24.4-12.2-35.8
				c-0.6-1.3-0.1-3,1.3-3.6c1.3-0.6,3-0.1,3.6,1.3c5.7,11.8,9.2,24.4,12.6,36.6c0.8,3,1.7,6,2.5,8.9c0.4,1.4-0.4,2.9-1.8,3.3
				C212.1,115.2,211.9,115.2,211.7,115.2z"/>
		</g>
		<g>
			<path fill="#FFFFFF" d="M136.7,147.1c-0.4,0-0.8-0.1-1.1-0.2L109,134.8c-1.4-0.6-2-2.2-1.3-3.6c0.6-1.4,2.2-2,3.6-1.3l26.5,12.1
				c1.3,0.6,1.9,2.2,1.3,3.6C138.7,146.5,137.7,147.1,136.7,147.1z"/>
		</g>
	</g>
	<g>
		<path fill="#FFFFFF" d="M48.2,214.4c-0.7-5.4-3.8-10-9-13.4c-3.5-2.3-8.6-2.7-11.3-2.8c-10.1-0.1-20.1,0-30.1,0.3l-3.2,0.1
			c-1.5,0-2.5,0.9-3.2,1.6c-0.2,0.2-0.4,0.3-0.5,0.5l-1,0.7v5.6l2.1,0.3c1,0.1,2,0.3,3,0.4c2.4,0.4,4.9,0.8,7.6,0.8c0,0,0,0,0,0
			c1.7,0,1.8,0.2,2.2,1.6c1.7,5.8,1.6,11.9,1.4,17.8H-5.9l0.8,3.1c1.7,6.1,6.9,7.3,11,8.3c0.1,0,0.1,0,0.2,0l0,2.5
			c0,3.4,0,6.6,0,10.2c-1.1,0-2.1,0.1-3.2,0.2c-0.7,0.1-1.5,0.1-2.2,0.2c-1.8,0.1-4.9,1-5.1,5.8l0.2,1.5l0.7,0.7
			c0.8,0.9,2.4,1.8,3.8,1.8c4.3,0.1,8.5,0.1,12.8,0.1c3.5,0,6.9,0,10.3-0.2c2.7-0.1,4.6-3.6,5.1-5.4c0.4-1.6-0.1-2.7-0.6-3.3
			c-1.1-1.4-2.8-1.5-4.6-1.5l-6.4-0.6c-0.1-1.4-0.3-2.8-0.6-4.2c-0.4-2.7-0.8-5.1-0.4-7.2c1.7-0.3,3.4-0.6,5.1-0.9
			c4.8-0.8,9.2-1.6,13.7-2.9c8.4-2.3,13.8-9.6,13.4-18.2l0-1C48.3,216,48.3,215.2,48.2,214.4z M16.6,205.5l0.3,2.3
			c3.4,0.3,6.8,0.8,10.9,1.5c0.8,0.1,1.6,0.4,2.4,0.7c0.7,0.3,1.4,0.5,2.1,0.7c4.5,1.2,4.6,3.4,4.7,4.2c0.3,4-0.2,6.6-3.3,8.6
			c-4.8,3.1-10,4.5-16.8,4.7c-0.1-1.7-0.1-3.3-0.2-5c0-1.6-0.1-3.3-0.1-4.9c0-3.3-0.1-6.7-0.3-10c0-0.4,0-0.6,0-0.6
			c0.1,0,0.2,0,0.4,0L16.6,205.5C16.6,205.5,16.6,205.5,16.6,205.5z"/>
		<path fill="#FFFFFF" d="M117,199.8c-16-0.6-32.1-1.2-48.1-1.7l-1.2,0c-5.3,0-6.6,2.5-6.7,4.6c-0.1,2.3,1,5.2,7.2,6.1
			c1.2,0.2,2.5,0.2,3.7,0.2l1.6,0v15.4l-1.5,0c-0.7,0-1.4,0-2.1-0.1l-0.6,0c-1.8,0-2.9,0.7-3.5,1.3c-0.8,0.8-1.2,1.9-1.2,3.2
			c0,1.7,1.2,4.1,3,4.9c1.6,0.7,3.5,1.1,6.1,1.4c-0.2,5.6-0.4,11.3-0.5,17.2c0,0-0.1,0-0.1,0l-0.9-0.1c-2.5-0.2-4.9-0.3-7.4-0.3
			c-1.2,0-3.6,0.6-4.4,2.3c-0.9,1.6-0.4,4.5,1.5,5.6l0.7,0.4c1.8,1,3.8,2.2,6.1,2.2c8.1,0.1,16.3,0.2,24.4,0.2l15.9,0
			c2.9,0,5.3-0.3,7.5-0.7c1.7-0.4,4.4-1.9,4.8-4.1c0.8-3.9,1.3-7.8,1.8-11.6l0.1-0.7c0.2-2-0.4-3.3-1.1-4c-1.1-1.2-2.7-1.8-5.1-1.5
			l-1.6,0.2l-1.3,4.2c-0.7,2.3-1.3,4.5-2.1,6.9c-5.2,0.1-10.4,0.1-15.6,0.1l-12.4,0l0.1-1.6c0.3-4.8,0.6-9.9,1-14.7
			c1-0.1,2-0.1,3-0.1l2,0c0,1.1,0.1,2.3,0.4,3.4c0.5,1.8,2.9,3.6,5,3.6h0c1.7-0.1,5-1.6,5.1-4l0.1-0.7c0.4-5.4,0.8-10.9-1.8-16.4
			c-0.6-1.3-2.5-3.1-4.3-3.1l-0.7,0.1c-1.6,0.4-3.3,1.9-4,3.5c-0.4,1-0.6,2-0.7,3l-3.3,0.2v-14.5h27.3c0,1,0.1,1.9,0.4,2.9
			c0.8,2.4,1.8,4.6,3,6.5c0.8,1.2,2.3,1.8,4.9,1.8l1.4-0.2l0.7-0.7c0.5-0.5,1.3-1.8,1.3-3.1c-0.2-3.4-0.4-6.7-0.9-10.1
			C123.4,202.6,120.6,199.9,117,199.8z"/>
		<path fill="#FFFFFF" d="M418.7,206.3c-0.3-1.6-1.3-6.4-6.9-6.6c-9.9-0.3-19.7-0.7-29.6-1l-19.6-0.7c-1.3,0-5.2,0-6.7,3.7
			c-0.5,1.1-0.3,2.2,0.3,3.3c1.3,2.2,4.7,3.6,7.3,3.8c1.2,0.1,2.4,0.1,3.5,0.2l1.3,0v15.4l-1.4,0c-0.7,0-1.4,0-2.1-0.1l-0.7,0
			c-2,0-3.1,0.8-3.8,1.5c-0.8,0.9-1.2,2-1.1,3.3c0.1,1.8,1.6,3.9,3.3,4.8c1.5,0.7,3.5,1.2,5.7,1.3c0,0,0.1,0,0.1,0
			c-0.2,5.6-0.4,11.3-0.5,17.2l-1.5-0.1c-2.4-0.1-4.7-0.3-7.1-0.3c-1.4,0-3.7,0.8-4.4,2.5c-0.8,1.6-0.1,4.5,1.6,5.4l0.6,0.3
			c1.8,1,3.9,2.2,6.2,2.2c8.1,0.1,16.1,0.2,24.1,0.2l15,0c2.4,0,5.3-0.1,8-0.7c1.8-0.4,4.8-1.9,5.4-4.2c0.8-3.6,1.3-7.2,1.7-10.8
			l0.2-1.3c0.3-2.1-0.4-3.4-1.1-4.1c-1.1-1.2-2.7-1.8-5-1.6l-1.7,0.1l-1.3,4.2c-0.7,2.1-1.3,4.3-1.8,6.5c-0.1,0.5-0.2,0.6-0.2,0.6
			c0,0-0.2,0.1-0.9,0.1h0l-1.3,0c-1.1,0-2.3,0-3.4,0.1c-1,0-2,0.1-3,0.1l-9.1,0l-10.2,0c0-0.3-0.1-0.6-0.1-0.8v-2.1
			c0-2.6,0-5.3,0.2-7.9c0.1-1.2,0.2-2.2,0.2-3.1c0.1-1.2,0.2-2.6,0-2.6c0.1-0.1,0.6-0.1,2.1-0.1l3.3,0c0,1.2,0.1,2.4,0.5,3.7
			c0.6,1.9,3.1,3.4,5.1,3.4h0c1.6-0.2,4.7-1.7,4.9-4.1l0-0.6c0.4-5.4,0.8-11-1.9-16.5c-0.6-1.2-2.5-3-4.3-3l-0.8,0.1
			c-1.6,0.5-3.2,2-3.8,3.5c-0.4,1-0.6,2-0.7,2.9l-3.3,0.2v-14.6h27.4c0,0.2,0.1,0.4,0.1,0.6l0.3,1.1c0.8,2.5,1.6,5,2.7,7.5
			c0.9,1.8,3.1,2,5.3,2.2l1.4-0.2l0.7-0.8c0.3-0.3,1.3-1.5,1.2-3l-0.1-1.9C419.4,212.2,419.2,209.3,418.7,206.3z"/>
		<path fill="#FFFFFF" d="M240.4,198l-9.5,0c-2.5,0-5,0-7.4,0c-2,0-3.7,0.3-5.1,0.9c-1.6,0.6-3.6,2.7-3.2,4.8
			c0.4,2.5,3.5,3.6,3.9,3.8c1,0.3,2.1,0.5,3.3,0.7v18.4l-1.6,0c-0.8,0-1.6,0-2.5,0c-4.8,0.2-5.2,3.6-5.2,5.1c0,2,0.9,4.5,5,4.8
			c1.3,0.1,2.7,0.2,4.2,0.3l0.3,15.2c-0.9-0.1-1.9-0.1-3-0.2c-1.4,0.1-3.7,1.1-4.4,3c-0.5,1.6,0.2,4.2,2,5.2l0.8,0.4
			c1.8,1,3.8,2.1,6,2.1l2-0.1c6.8-0.2,13.8-0.4,20.5-1.6c12.4-2.2,21.4-9.4,26-20.8c3.6-9.1,2.5-19-3-27.2
			C263.1,203.5,252.3,198,240.4,198z M233.6,253.1v-16.4l0.1,0c1.7-0.4,3.2-0.8,4.6-1.4c1.5-0.6,3.4-2.6,2.9-4.5
			c-0.3-1.8-2.2-3.1-3.8-3.5c-1.4-0.3-2.9-0.4-4.5-0.6l0-18.9c8.9,0.1,16.6,0.2,23.3,5.9c4.4,3.8,6.7,7.1,7.5,11
			c0.9,4.3-0.7,8.7-2.5,12.8c-4,9-11.6,13.8-24,15.2C236,252.9,234.8,253,233.6,253.1z M223.9,259.9L223.9,259.9L223.9,259.9
			L223.9,259.9z"/>
		<path fill="#FFFFFF" d="M337.7,235.7l-2.1-1.4l-1.7,1.8c-0.6,0.5-1.5,1.3-1.9,3.1c-0.7,3.8-1.4,7.7-1.7,11.6
			c0,0.4-0.1,0.6-0.1,0.6c-0.1,0-0.3,0.1-0.9,0.1l-12.7,0l-10.8,0c-0.1-0.4-0.1-0.8-0.1-1.2c0.1-2.5,0.2-4.9,0.3-7.4l0.2-5.2
			c0-0.6,0-1.3-0.1-1.9c0-0.1,0-0.3-0.1-0.5c0.3-0.1,0.8-0.1,1.1-0.2c0.6-0.1,1.2-0.2,1.7-0.3c0.3-0.1,0.5-0.1,1.1-0.4l4.3-1.6
			l-2.6-2.7c-0.4-0.4-0.7-0.8-1-1.2c-0.9-1.1-2-2.4-3.5-3c-1.6-0.5-1.5-0.9-1.4-1.8c0.1-0.8,0-1.6-0.1-2.2c0-0.2-0.1-0.4-0.1-0.6
			l-0.8-13c4.6-1,7.2-2,8.4-3.9c0.7-1.1,0.9-2.4,0.5-3.9l-0.4-1.9l-10.2,0c-3.9,0-7.7,0-11.6,0.1c-1.6,0-3.8,1.3-4.2,3.1
			c-0.5,1.9,1,3.9,2.3,4.6c1.6,0.9,3.2,1.6,4.9,2.4l0.4,0.2v16.3c-1.1,0.1-2.1,0.2-3.2,0.6c-1.6,0.6-3,2-3.7,3.6
			c-1.1,2.8,2.8,4.9,2.9,5c0.8,0.4,1.6,0.6,2.3,0.8c0.5,0.1,0.9,0.2,1.2,0.4c0.7,0.4,1.1,0.6,1.3,0.8c0.1,4.2,0.1,8.4,0.1,12.5
			l0,1.9c-1.5,0.2-3.2,0.3-4.8,0.7c-1.8,0.4-2.7,1.4-3.2,2.2c-0.7,1.2-0.9,2.6-0.5,4.2c0.3,1.1,1.1,4.2,5.1,4.2h0.1
			c8.9-0.2,17.7-0.3,26.6-0.4l14.9-0.2c3.7,0,5.9-2.2,5.9-5.7c0-1.6,0.2-3.3,0.3-4.9c0.1-1.4,0.2-2.8,0.3-4.1c0.1-2.4,0.1-5.3,0-8.2
			C340,237.4,338.9,236.6,337.7,235.7z M292.1,260.1L292.1,260.1L292.1,260.1L292.1,260.1z"/>
		<path fill="#FFFFFF" d="M500.6,250.1c-2.9-3.2-7.4-3-10.8,0.6c-0.9,1-1.3,1-1.3,1c0,0-0.3-0.1-1-0.8c-1.6-1.7-3-3.8-4.1-6.1
			c-0.6-1.3-1-2.6-1.4-3.9c-0.7-2.1-1.4-4.3-2.7-6.4c-0.4-0.6-0.5-0.9-0.5-0.9c0-0.1,0.2-0.3,0.6-0.7c0.5-0.5,1.1-0.9,1.6-1.4
			c2.5-2.2,5.5-4.6,6.3-8.7c0.4-1.8,0.8-3.5,1.3-5.3c1.3-4.2,0.7-8.6-1.9-12.2c-2.7-4-7.4-6.6-12.3-6.9c-5.2-0.3-10.8-0.4-18.1-0.4
			l-7.7,0c-3,0-6,0.4-8.9,0.8l-2.3,0.3c-1.1,0.1-1.9,0.8-2.6,1.4l-1.9,2l1.9,2c0.4,0.4,1.1,1.1,2.1,1.3c2.4,0.6,4.8,1.2,7.2,1.7
			l2.5,0.9c-0.2,4.7-0.5,10.3-0.4,16.1c0,3-0.1,3.6-1.8,4.2c-1.3,0.4-1.6,1.5-1.9,2.2l-0.7,1.6l2.3,1.8c0.5,0.4,1.1,0.8,1.6,1.3
			l0.5,0.5c0.2,0.2,0.7,0.7,0.7,0.3c0.1,4.2,0.1,8.4,0.1,12.6v2l-10.3,2.1l-1.7,0.8l-0.8,4.2l1.8,0.7c0.6,0.2,1.2,0.5,1.7,0.8
			c1.5,0.8,3.2,1.6,5.3,1.6h0c5.1-0.2,10.2-0.6,15.2-1.1l8-0.7V253l-1.9-0.4c-0.5-0.1-1.1-0.3-1.5-0.4c-1.3-0.4-2.7-0.8-4.1-0.8
			c-1.2,0-1.3-0.3-1.3-1c-0.1-3.4-0.1-6.8-0.1-10.3l0-1.6l3.8,0c1.5,0,2.9,0,4.5-0.1c0.8,0,1,0.1,1.4,0.9c1.4,2.7,2.9,5.3,4.4,7.9
			c1.1,1.9,2.2,3.7,3.2,5.6c2.1,3.8,4.9,6.5,8.5,8.3c1.1,0.6,3,0.8,5.5,0.8c1.6,0,7.2-0.1,9.3-2l0.6-0.5c0.9-0.8,2.1-1.7,2.6-3.1
			C501.8,254.8,502.2,251.9,500.6,250.1z M476.6,209.4c1.9,4.2,0.3,10.8-3.7,14.3c-3.8,3.4-8,5-12.9,5c-0.8,0-1.6,0-2.7-0.3
			c0-5.9,0.2-11.9,0.3-17.8l0-1.9c1.6-0.1,3.2-0.2,4.8-0.4c4.4-0.4,9.1-0.7,12.8,0.2C475.8,208.5,476.5,209.1,476.6,209.4z"/>
		<path fill="#FFFFFF" d="M165,198l-9.7,0c-2.4,0-4.9,0-7.3,0c-1.9,0-3.5,0.3-4.9,0.9c-1.2,0.5-4.2,2.7-3.3,5.1
			c0.6,1.7,2.4,2.9,3.9,3.5c1,0.4,2.1,0.5,3.1,0.7v18.3l-0.1,0c-1.6,0.1-3.2,0.1-4.7,0.2c-1.7,0.1-3,0.8-3.8,2
			c-0.7,1.1-0.8,2.5-0.3,3.8c0.6,1.5,2.1,3.3,3.9,3.7c1.7,0.3,3.4,0.4,5.3,0.5v15.1c-1-0.1-2-0.2-3.1-0.2c0,0,0,0,0,0
			c-1.5,0-3.8,1.1-4.3,2.9c-0.4,1.5,0,4.1,1.8,5.1l0.8,0.5c1.8,1,3.8,2.2,6.1,2.2l1,0c6.4,0,13.1-0.1,19.5-1.1
			c13.7-2.3,23.4-9.6,28-21.2c3.7-9.1,2.6-19.1-2.9-27.3C187.8,203.5,176.9,198,165,198z M158.3,253.1v-16.4l0.2-0.1
			c1.6-0.4,3.2-0.8,4.6-1.3c1.5-0.6,3.3-2.6,2.9-4.6c-0.4-1.7-2.2-3.1-3.8-3.4c-1.4-0.3-2.9-0.4-4.5-0.6l0-18.9h0
			c8.9,0.1,16.6,0.2,23.3,5.9c4.4,3.8,6.7,7.2,7.5,11c0.9,4.3-0.7,8.7-2.6,12.9c-4,9-11.6,13.8-24.1,15.2
			C160.6,252.9,159.5,253,158.3,253.1z M148.5,259.9L148.5,259.9L148.5,259.9L148.5,259.9z"/>
	</g>
	<g>
		<path fill="#FFFFFF" d="M290.4,156.7c-0.5-1.1-1.3-1.7-2.2-1.7c-1.1,0-1.7,0.9-2.1,1.4c-0.1,0.1-0.2,0.3-0.3,0.3
			c-0.7,0.6-1.4,1.5-2.3,2.4c-2.8,3-7.2,7.7-10,7.1c-1.3-0.3-2-1.8-2-3c0-0.8,0.3-1.7,1.5-2c6.5-1.3,15.9-10.8,15.5-17.2
			c-0.1-2-1.4-5.5-8.2-5.9c-0.2,0-0.5,0-0.7,0c-6.6,0-10.9,6.3-12.2,12.5c-1,4.8-6.8,15.7-11.7,17.2c-0.3,0.1-0.5,0.1-0.6,0.2
			c-0.4-0.8,0.1-3.7,4.9-13.5c0.5-1,0.9-1.8,1.1-2.2c0.7-1.8,2.3-5.9-1.1-9.2c-2.3-2.3-5.4-2.6-7.7-0.8c0,0,0,0,0,0
			c0.5-1.3,1.1-2.6,1.8-3.9c0.7-1.3,1.3-2.6,1.8-4c0.4-1.1,0.4-2.1-0.1-3c-0.6-0.9-1.7-1.5-3.4-1.8c-5-0.7-5.9,3.4-6.3,5.3
			c-0.1,0.3-0.1,0.6-0.2,0.9c-2.8,9-6.5,17.9-10.1,26.5c-1.6,3.9-3.3,7.9-4.8,11.8l-0.4,1.1l1,0.6c0.8,0.5,1.7,0.7,2.5,0.7
			c6,0,9.7-12.2,10.4-14.7c1.2-4.3,3.6-8.1,7.3-11.5c0.1-0.1,0.6-0.1,1-0.2c0,0.5,0,1-0.2,1.3c-0.3,0.7-0.7,1.7-1.2,3
			c-1.6,3.5-3.7,8.2-4.2,12.3c-0.2,2,0.4,4.2,1.8,5.8c1.3,1.6,3.1,2.5,4.9,2.7c3.4,0.4,6.2-2.4,8.5-4.6c0.5-0.5,1-1,1.5-1.4
			c0.9-0.8,1.3-0.8,1.3-0.8c0.1,0,0.5,0.4,0.8,0.7c0.4,0.4,0.9,0.9,1.5,1.3c3.5,2.6,8.1,2.6,11.7,0.2c2.3-1.5,4.1-3.6,5.8-5.6
			c1.4-1.6,2.7-3.2,4.3-4.4C290.3,160,291.1,157.9,290.4,156.7z M277.4,153.6c-0.7,0.5-1.7,0.9-2.6,1.1c-0.2-0.3-0.4-0.5-0.7-0.7
			c0.1-0.3,0.1-0.5,0.3-0.9c1.2-2.4,3.7-5.3,5.3-6.5c0,0.1,0.1,0.2,0.1,0.3C281,149.2,279.4,152,277.4,153.6z"/>
		<path fill="#FFFFFF" d="M239.1,145.1c1.7-4,3.4-8.4,1.5-11.3c-1.1-1.6-3-2.4-6.1-2.1c-2.2,0.2-4.1,1.1-6,2c-1,0.5-2,0.9-3,1.3
			c-1.5,0.5-3,0.8-4.6,1.2c-4.6,1-9.4,2.1-12.4,6.5c-1.7,2.5-3.5,7.7-1.9,11.2c0.6,1.4,1.9,3,4.9,3.4c1.8,0.2,2.7-0.5,3.2-1
			c1.2-1.5,0.7-4,0.3-6c-0.1-0.7-0.3-1.4-0.3-1.7c0-1,0.4-1.9,1.3-2.7c3.4-3.4,12.1-4.8,16.1-4.8c-0.4,4.5-2.8,9.7-4.9,14.3
			c-1,2.3-2,4.5-2.8,6.5c-1.7,4.8-4,10.2-7.8,14.5c-1.1,1.2-2.3,1.7-3.8,1.7c-0.9,0-1.9-0.2-2.7-0.4c-1.1-0.2-2.4-1.7-2-3.6
			c0.3-1.5,0.3-2.7-0.1-3.7c-0.5-1.1-2-2-3.4-2c0,0,0,0,0,0c-1.2,0.1-2.1,0.6-2.8,1.5c-1.4,1.9-0.9,5-0.5,6.7
			c0.8,3.1,2.6,6.8,4.9,7.8c1.9,0.8,3.6,1.2,5.5,1.2c3,0,5.9-1,9.3-3.3c3.7-2.4,5.4-6.4,7.2-10.1c0.3-0.7,0.7-1.5,1-2.2
			c2.3-4.8,4.2-9.8,6.1-14.7C236.4,151.9,237.7,148.4,239.1,145.1z"/>
	</g>
	<g>
		<polygon fill="#FFFFFF" points="193.8,298.8 196.8,298.8 195.3,293.7 		"/>
		<path fill="#FFFFFF" d="M328.6,306.7L328.6,306.7l-0.6-1c-0.1-0.2-0.2-0.3-0.3-0.6c-0.1-0.3-0.2-0.6-0.4-1l0-0.2l-0.5-0.5
			l-0.4-0.4c-0.1-0.2-0.2-0.4-0.3-0.6l0-0.1l-0.3-0.5c-0.1-0.2-0.3-0.4-0.5-0.5c-0.1-0.3-0.3-0.6-0.4-0.9l-0.4-0.8
			c0-0.1,0-0.2-0.1-0.3l-0.3-0.8l-0.3-0.1c0,0,0-0.1-0.1-0.1l0,0l-0.1-0.3c-0.1-0.4-0.3-0.6-0.4-0.9c-0.1-0.2-0.2-0.3-0.3-0.5
			l-0.2-0.4c-0.1-0.2-0.2-0.5-0.3-0.8c0-0.1,0.1-0.2,0.1-0.3l0.5-1c0,0,0-0.1,0.1-0.1l0.5-0.7c0.3-0.6,0.3-1.2,0.4-1.6
			c0-0.3,0-0.5,0.1-0.6c0.1-0.2,0.2-0.3,0.5-0.8c0,0,0,0,0,0l0.3-0.3c0.1-0.1,0.2-0.3,0.3-0.4l0.3-0.1l0.2-0.7
			c0.1-0.3,0.1-0.5,0.1-0.7l0.3-0.4c0,0,0-0.1,0.1-0.2l0.3-0.6c0.1-0.2,0.2-0.3,0.2-0.5l0.2-0.4c0.3-0.5,0.4-0.9,0.4-1.2
			c0-0.1,0-0.2,0.1-0.4c0.1-0.1,0.3-0.3,0.4-0.7l0.2-0.4c0.1-0.2,0.1-0.3,0.1-0.5l0.2-0.4l0-0.4c0-0.8-0.6-1.9-1.6-2.2
			c-0.2-0.2-0.6-0.4-1.1-0.4l-0.4,0c-0.4,0.1-0.6,0.2-0.8,0.3l-0.1,0l-0.1,0c-0.7,0-1.1,0.1-1.5,0.2c-0.2,0-0.4,0.1-0.6,0.1
			l-0.1,0.9h-0.1l-0.2-0.9c-1.5,0.1-3.1,0.1-4.6,0c-0.8,0-1.6,0-2.3,0l-1,0c-0.4,0-0.8,0-1.2,0.1c-0.4,0-0.8,0.1-1.3,0.1
			c0.3,0.1,0.5,0.3,0.6,0.6l-1.2,0l0-0.7c-0.1,0-0.1,0-0.1,0l-1,0v0c-0.1,0-0.3,0-0.4,0c-2.8-0.2-6-0.1-8.9-0.2
			c0.4,0,0.7,0.3,0.8,0.6h-0.8c-0.1-0.1-0.1-0.4-0.3-0.5V280l-1.2,0c-0.1,0-0.2,0-0.3,0l-0.9,0.1c-0.1,0-0.3,0-0.5,0l-1.1,0l-1.2,0
			c-0.1,0-0.1,0-0.2,0l-0.4,0c-0.1,0-0.3,0-0.4,0l-1.3,0c-0.3,0-0.5,0.1-0.7,0.2c-0.3,0-0.5,0-0.8,0l-2.3,0c-0.3,0-0.6,0-0.9,0
			c-0.4,0-0.7,0.1-1,0.1c-0.1,0-0.3,0-0.5,0l0,0l-0.2,1.1l0-1.2c-0.1,0-0.3,0-0.4,0l-0.9,0v0c-0.5,0-0.9,0-1.4,0
			c-0.4,0-0.8-0.1-1.2-0.1c0,0,0,0,0,0c-0.2,0-0.4,0-0.6,0.1l0-0.1c-0.1,0-0.2,0-0.3,0.1l-0.9,0.1l-1.1,0c-0.7,0-1.3,0-1.9-0.1
			c-1-0.1-1.8-0.1-2.7,0c-0.3,0-0.5,0.1-1,0.1l-1.4,0l-0.6,0c-0.5,0-1.2,0-1.8,0.1c-1.9,0.1-3.9,0.1-4.8,0c-0.7-0.2-1.3,0-1.7,0.1
			l-0.3-0.1c-0.4-0.1-0.9-0.1-1.3,0l-0.7,0c-0.3,0-0.7,0.1-0.9,0.2c-1,0-2,0-2.9,0l-0.4,0l-0.7-0.2l-0.9,0.1c-0.2,0-0.3,0-0.8,0
			l-0.8,0.2l0-0.1l-0.2,0.7v-0.9h0c0,0-0.1,0-0.1,0l-0.5,0l0.1-0.1l-1.5,0.3c-1.6,0.1-2.8,0.1-4.1,0.1l-1.3,0l-0.3,0l-1.5,0
			c-0.1,0-0.1,0-0.2,0l-0.5,0.1c-0.2-0.1-0.5-0.1-0.8-0.1c-0.3,0-1,0.1-1.5,0.3c-0.8,0.1-1.7,0.1-2.5,0c-0.5,0-1.1,0-1.5-0.1
			l-0.5-0.1l-0.2,0c-0.2,0-0.4,0.1-0.5,0.2l-0.7,0c0.2,0,0.3,0.1,0.4,0.2c0,0-0.1,0.1-0.1,0.2h-0.7v-0.5h-0.2v0c-0.1,0-0.2,0-0.3,0
			l-0.8,0v0c-0.1,0-0.2,0-0.4,0c-1.8-0.2-3.8,0-5.3,0.1L222,281c-1.4,0.1-3.3,0-4.8,0.2c-0.1,0-0.3,0-0.8,0l-2-0.2
			c-0.2,0-0.5,0.1-0.7,0.2l-1.5,0c-0.2,0-0.5,0.1-0.7,0.2c-0.1,0-0.1,0-0.2,0c-0.2,0-0.3,0-0.4,0l-0.7,0.1l-0.1,0
			c-0.1,0-0.2,0-0.3,0l-1,0c-0.3,0-0.5,0.1-0.7,0.2h-0.9c-0.3,0-0.6,0.1-0.8,0.1c0,0,0,0-0.1,0l-1.3,0c-0.4-0.1-0.8-0.1-1.2,0
			l-0.8,0c-0.6,0-1.1,0-1.6,0.1c-0.3,0-0.6,0.1-0.9,0.1l-0.5,0.1c-0.3-0.1-0.7-0.1-1.7,0.1l-1,0c-1.1,0-2.5,0.1-3.2,0
			c-0.3-0.1-0.5-0.1-0.7-0.1l-1.3,0.1c-0.8-0.1-1.8-0.2-2.7-0.3c-0.2,0-0.4-0.1-0.6-0.1c-0.3-0.1-0.6-0.1-0.8-0.1l-0.5,0
			c-0.2,0-0.3,0-0.7,0c-0.2-0.1-0.6-0.2-1-0.2c-1.1-0.1-1.8,0.1-2.4,0.3c-0.3,0.1-0.6,0.2-0.9,0.2c-0.1,0-0.2,0-0.4,0l0-0.2H181
			c-0.4,0-0.7,0.1-0.9,0.1c-0.1,0-0.4-0.1-0.8-0.1c-0.4,0-0.7,0.1-0.8,0.1c-0.1,0-0.3,0-0.5-0.1c-0.1,0-0.2,0-0.2,0
			c-0.2-0.1-0.3-0.1-0.6-0.1l-0.5,0c-0.3-0.1-0.6-0.1-1-0.1l-0.6,0.1l0,0c-0.2,0-0.4-0.1-0.6-0.1l-0.1,0l-0.4-0.2h-0.5
			c-0.1,0-0.3,0-0.5,0l-0.1-0.1l-0.5,0.2c-0.3-0.2-0.7-0.4-2.1-0.1c-0.3,0-0.7,0.1-1.2,0.5l-0.3,0.3l-0.1,0.4c0,0.1-0.1,0.2-0.1,0.3
			l-0.3,0.2l0.7,1.1l0.1,0.7l0.2,0.3c0,0,0,0,0.1,0.1l0,0.2l0.6,0.5c0.2,0.2,0.5,0.3,0.8,0.4l0.7,1.1l0.1,0.1l-0.1,0.3l0.6,0.5
			c0.1,0.1,0.1,0.3,0.3,0.4c0.1,0.3,0.4,0.8,0.8,1.2c0,0.2,0.1,0.5,0.2,0.7l0.4,0.6l0.1,0.1l0,0.1l0.2,0.4c0.1,0.3,0.3,0.6,0.4,0.8
			c0.1,0.2,0.2,0.3,0.2,0.6c0,0.2,0.1,0.6,0.2,0.8l0.1,0.2l0,0.1l0.3,0.4c0.2,0.3,0.5,0.5,0.6,0.6c0.1,0.2,0.2,0.4,0.3,0.5
			c0.1,0.1,0.1,0.2,0.2,0.3l0,0.1c-0.1,0.1-0.2,0.2-0.4,0.3l-0.5,0.5c-0.2,0.2-0.3,0.5-0.3,0.7l-0.3,0.1l-0.1,0.6
			c-0.2,0.2-0.5,0.4-0.5,0.7l-0.4,0.5c-0.1,0.2-0.2,0.3-0.2,0.5c-0.1,0.2-0.2,0.3-0.2,0.4l-0.4,0.4c-0.2,0.3-0.3,0.5-0.4,0.7
			c-0.1,0.1-0.1,0.1-0.2,0.2L172,302c-0.1,0.2-0.2,0.5-0.3,0.7l-0.4,0.3c-0.1,0.1-0.1,0.2-0.2,0.3c-0.1,0.1-0.2,0.1-0.3,0.2
			l-0.5,0.7l0,0.1c-0.1,0.1-0.2,0.2-0.3,0.4c-0.1,0.1-1,0.9-1.1,1.5l-0.3,0.3c-0.2,0.2-0.4,0.5-0.5,0.7l-0.4,0.5
			c-0.7,1.3-0.3,2.1,0.1,2.6l0.3,0.3c0.4,0.8,1.4,1.1,2.3,0.7l0.5,0.1c1.2,0.1,2.4,0,3.6-0.1l0.8-0.1c1.5-0.1,2.9-0.1,4.5-0.1l0.8,0
			c0.3,0,0.7,0,1.1-0.1l2.7,0.1c0.2,0,0.3,0,0.4-0.1l0.2,0c1.1,0.2,2.6,0.1,3.6,0c0.3,0,0.7-0.1,1-0.1c0.1,0,0.2,0,0.3-0.1
			c0.4,0.1,0.9,0.1,1.3,0.1l4.1-0.1c0.7,0,1.4,0,2.1,0c0.3,0,0.6,0,0.9,0.1c1,0.1,2,0.1,3.1,0c0.4,0,0.9-0.1,1.4-0.1
			c0.1,0,0.3,0,0.4,0.1c0.2,0,0.4,0.1,0.6,0.1c0.7,0.1,1.3,0.1,1.9,0.1c0.4,0,0.7,0,1,0l0.7,0.2l1.4-0.1v0l1.5,0.1
			c1,0.1,1.6,0.1,2.6,0.2c0.6,0,1.1,0,1.5-0.1c0.3,0,0.5-0.1,1,0c0.2,0,0.5,0.1,0.7,0.1c0.3,0,0.5,0,0.7,0c0.6,0,1.1-0.1,1.6-0.1
			c0.3,0,0.6-0.1,0.9-0.1h3.3c0.2,0,0.5,0,0.6-0.1c0.1,0,0.3,0.1,0.6,0.1c0.9,0.1,1.5,0,2.1-0.1l0.8-0.1l1,0c0.2,0,0.4,0,0.5,0
			c0.5,0,1.1-0.1,1.6-0.2c0.4-0.1,0.9-0.1,1.3-0.1l0.6,0l1.7,0l0.5,0c0.5,0,0.9,0,1.3-0.1c0.7,0,1.5-0.1,2.3,0
			c0.7,0.1,1.5,0.1,2.4,0c0.3,0,0.6-0.1,1.1-0.1c0.8,0.1,0.5,0.1,1.5,0c0.1,0,0.3,0,0.4,0l0.9,0l0.4,0c0.3,0,0.6-0.1,0.5-0.2
			c0.1,0,0.3,0.1,0.5,0.1l0.4,0c0.2,0,0.4,0,0.5,0c0.3,0.1,0.6,0.2,1,0.2l0.4-0.1l0.5,0c0.9,0.1,1.7,0.1,2.4,0.1l0.5,0
			c0.2,0,0.3,0,0.5-0.1c0.2,0,0.5,0.1,0.7,0.1l0,0l0.9,0c0.9,0.1,1.5,0,1.9-0.2l0.6,0.2c0.5,0,0.8-0.2,0.7-0.2c0.4-0.1,0.7,0,1.5,0
			l0.3-1.2v1.3h0l1.3,0v-0.1l0.3,0.1l0.1-0.1l0.1,0c0.6,0.1,1.4,0.1,2.7,0c0.5,0,0.8-0.1,1.3-0.1c0.2,0.1,0.6,0.2,1.3,0.1l0.4,0.1
			c0.3,0,0.6-0.1,0.8-0.2h0.2c0.9,0.2,1.5,0.1,2.6,0l0.6-0.1c0.3,0,0.5-0.1,0.7-0.1c0.2,0.1,0.5,0.3,1.1,0.3l0.6-0.1
			c0.6,0.1,1.4,0.1,2.1,0l0.6,0.1c0.1,0,0.2,0,0.3,0l0.5,0c0.1,0,0.3,0,0.4-0.1c0.1,0,0.3,0,0.4,0l0.6-0.1c0.3,0.1,0.6,0.1,0.9,0
			l0.5,0c0.1,0,0.3,0,0.4,0l1,0.1c0.5,0,0.9,0,1.2,0c0.5,0,0.6-0.1,1.6,0c0.2,0,0.4,0,0.6-0.1c0.4,0.1,0.7,0.1,1,0.1l1,0l0.6,0
			c0.2,0,0.3,0,0.5,0c0.3,0,0.6-0.1,0.8-0.1c0.3,0,0.6,0,0.9,0.1c0.4,0,0.7,0.1,1.1,0.1c0.7,0,2,0,2.5-0.2l0.3,0.2h0.6
			c0.2,0,0.5,0,0.8,0l1,0c0.6,0,1.3,0,2,0c1.1,0,1.7-0.1,2.2-0.2v0.2c0.1,0,0.1,0,0.2,0l1.1-0.1v-0.1c0.7-0.1,1.4-0.2,2-0.2
			c0.1,0,0.3,0,0.3,0l0.3,0.2h0.5c0.2,0,0.4,0,0.6-0.1l0.4,0.1c1.1,0.2,2,0.1,2.8,0.1c0.5,0,1.1-0.1,1.5,0c0.2,0,0.4,0.1,0.6,0.1
			c0.5,0.1,1,0,1.7,0c0.4,0,0.7-0.1,0.9-0.1l0.2-0.9l0.1,1.1l0.3,0c0.1,0,0.2-0.1,0.3-0.1l0.8-0.3c0.2,0,0.4,0,0.6,0
			c0.3,0,0.5,0,0.8,0c0.1,0,0.1,0,0.2,0l0.2,0c0.3,0,0.5,0,0.8,0l1.7,0c0.2,0,0.4,0,0.6,0.1c0.3,0,0.6,0.1,1.1,0.1c0,0,0,0,0,0
			c0.4,0,0.7-0.2,0.8-0.2v0h0.7c0.9-0.1,1.7-0.1,2.7-0.1h0.8c0.3,0,0.6,0,0.9,0l1.2,0c0.1,0,0.3,0,0.4-0.1c0.6,0.2,1.4,0,1.8-0.6
			l0.1-0.2c0.3-0.3,0.4-0.6,0.5-1C329.4,307.8,329,307.2,328.6,306.7z M201.7,304.5h-2.8c-0.2,0-0.3-0.2-0.4-0.3l-0.6-2h-4.9l-0.6,2
			c-0.1,0.2-0.2,0.3-0.4,0.3H189c-0.2,0-0.4-0.2-0.4-0.3l4.9-16.6v0c0.1-0.2,0.2-0.4,0.3-0.4h1.1h0.8h1.1c0.2,0,0.3,0.1,0.3,0.4v0
			c1.6,5.5,3.3,11.1,4.9,16.6C202.1,304.3,201.9,304.5,201.7,304.5z M224,302.2c0,0,0.1,0.3-0.3,0.6l-1.4,1.4
			c-0.3,0.3-0.6,0.3-0.6,0.3l-6.4,0c0,0-0.4,0.1-0.6-0.3l-1.4-1.4c-0.3-0.3-0.3-0.6-0.3-0.6h0c0,0,0,0,0-0.1v-14.6
			c0-0.2,0.2-0.4,0.3-0.4h3c0.2,0,0.3,0.2,0.3,0.4v12.8c0,0,0,0.1,0.1,0.2l0.4,0.3h2.8l0.4-0.3c0.1-0.1,0.1-0.1,0.1-0.2v-12.8
			c0-0.2,0.1-0.4,0.3-0.4h2.9c0.2,0,0.4,0.2,0.4,0.4V302.2z M246.8,289.5v2.6c0,0.2-0.2,0.3-0.4,0.3h-2.9c-0.2,0-0.4-0.2-0.4-0.3
			v-1.2h-3.1c-0.1,0-0.1,0-0.2,0.1l-0.4,0.4c-0.1,0.1-0.1,0.2-0.1,0.2v2l0,0c0,0,0,0.1,0.1,0.2l0.3,0.3h4.6c0,0,0.4,0,0.7,0.3
			l1.4,1.4c0.3,0.3,0.3,0.6,0.3,0.6v5.9c0,0,0,0.3-0.3,0.6l-1.4,1.4c-0.3,0.3-0.7,0.3-0.7,0.3h-6.4c0,0-0.3,0-0.7-0.3l-1.4-1.4
			c-0.3-0.3-0.3-0.6-0.3-0.6s0,0,0-0.1v-2.4c0-0.2,0.2-0.3,0.4-0.3h2.9c0.2,0,0.3,0.2,0.3,0.3v1.1h3.1c0.1,0,0.1,0,0.1-0.1l0.4-0.4
			c0.1-0.1,0.1-0.2,0.1-0.2v-1.9c0,0,0-0.1-0.1-0.2l-0.4-0.4c-0.1,0-0.1-0.1-0.1-0.1h-4.4c0,0-0.3,0-0.7-0.3L236,296
			c-0.3-0.3-0.3-0.6-0.3-0.6h0v-5.9h0c0,0,0-0.3,0.3-0.6l1.4-1.4c0.3-0.3,0.7-0.3,0.7-0.3h6.4c0,0,0.4,0,0.7,0.3l1.4,1.4
			C246.8,289.2,246.8,289.5,246.8,289.5L246.8,289.5L246.8,289.5z M268.1,290.6c0,0.2-0.2,0.4-0.4,0.4h-3.1v13.3
			c0,0.2-0.2,0.3-0.4,0.3h-2.9c-0.2,0-0.3-0.1-0.4-0.3v-13.3h-3.1c-0.2,0-0.4-0.1-0.4-0.4v-2.9c0-0.2,0.1-0.4,0.4-0.4h9.9
			c0.2,0,0.4,0.2,0.4,0.4V290.6z M282.4,304.2c0,0.2-0.1,0.3-0.4,0.3h-2.9c-0.2,0-0.3-0.1-0.3-0.3v-16.5c0-0.2,0.1-0.3,0.3-0.3h2.9
			c0.2,0,0.4,0.2,0.4,0.3V304.2z M305.5,304.1c0,0.2-0.1,0.3-0.4,0.3h-3.9c-0.2,0-0.4-0.2-0.4-0.3l-3-8.3v8.3c0,0.2-0.2,0.3-0.4,0.3
			h-2.9c-0.2,0-0.3-0.2-0.3-0.3v-16.6c0-0.2,0.1-0.3,0.3-0.3h3.7c0.2,0,0.3,0.1,0.4,0.3h0l3.3,9.6l0,0.3v-9.8c0-0.2,0.1-0.3,0.3-0.3
			h2.9c0.2,0,0.4,0.1,0.4,0.3V304.1z"/>
	</g>
</g>
</svg>
